<svg width="26" height="26" viewBox="0 0 26 26" fill="none" xmlns="http://www.w3.org/2000/svg">
<path d="M12.9808 0C5.81148 0 0 5.81114 0 12.98C0 20.1488 5.81148 25.96 12.9808 25.96C20.15 25.96 25.9615 20.1488 25.9615 12.98C25.9615 5.81114 20.15 0 12.9808 0Z" fill="white"/>
<path d="M14.7377 16.421H18.0971L18.6248 13.0087H14.7377V11.1435C14.7377 9.72613 15.2011 8.46905 16.5271 8.46905H18.6579V5.49151C18.2834 5.44089 17.4916 5.33057 15.9955 5.33057C12.8711 5.33057 11.0395 6.98028 11.0395 10.7392V13.0093H7.82739V16.4217H11.0388V25.8008C11.6749 25.8956 12.3194 25.9604 12.9808 25.9604C13.5785 25.9604 14.162 25.9059 14.7377 25.8281V16.421Z" fill="#157DA1"/>
</svg>