<svg width="38" height="38" viewBox="0 0 38 38" fill="none" xmlns="http://www.w3.org/2000/svg">
<g clip-path="url(#clip0_48_30)">
<path d="M19.031 4.3101L19.0311 4.31011C19.165 4.31405 19.2998 4.34535 19.4241 4.40504L26.262 7.545L26.2626 7.54527C26.6285 7.71448 26.8617 8.08507 26.8499 8.49197L26.8499 8.49204C26.8381 8.89398 26.5896 9.25309 26.2111 9.40292L26.2107 9.40306L20.01 11.8463V17.8218L26.6 24.4118L29.6859 21.3259C29.8709 21.1408 30.1199 21.034 30.3844 21.03L30.3845 21.03C30.6566 21.0261 30.9207 21.1324 31.1141 21.3259L37.9523 28.1641C38.2149 28.4164 38.3212 28.7937 38.227 29.1454M19.031 4.3101L37.9852 29.0819M19.031 4.3101C18.7586 4.30221 18.4948 4.40486 18.2984 4.5934C18.1 4.78387 17.99 5.04829 17.99 5.32V11.0236C17.9781 11.1154 17.9781 11.2096 17.99 11.3014V17.8218L11.4 24.4118M19.031 4.3101L11.4 24.4118M38.227 29.1454C38.2268 29.1459 38.2267 29.1464 38.2265 29.147L37.9852 29.0819M38.227 29.1454C38.2271 29.1448 38.2272 29.1443 38.2274 29.1438L37.9852 29.0819M38.227 29.1454C38.1358 29.4998 37.8599 29.7757 37.5055 29.8669M37.9852 29.0819C37.9169 29.3491 37.7091 29.5569 37.4419 29.6252M37.5055 29.8669C37.506 29.8668 37.5065 29.8667 37.507 29.8665L37.4419 29.6252M37.5055 29.8669C37.1537 29.9612 36.7764 29.8549 36.524 29.5923M37.5055 29.8669C37.5049 29.8671 37.5043 29.8672 37.5038 29.8674L37.4419 29.6252M37.4419 29.6252L36.524 29.5923M36.524 29.5923L36.5259 29.5941L36.7027 29.4173L36.5219 29.59C36.5226 29.5908 36.5233 29.5915 36.524 29.5923ZM11.4 24.4118L8.31412 21.3259C8.12067 21.1324 7.8566 21.0261 7.58451 21.03L7.5844 21.03C7.31987 21.034 7.07095 21.1408 6.88588 21.3259L0.0477353 28.164C-0.214848 28.4164 -0.32118 28.7936 -0.226959 29.1454C-0.135767 29.4998 0.140199 29.7758 0.494632 29.867C0.846376 29.9612 1.22362 29.8548 1.47601 29.5922L7.6 23.4682L9.97176 25.84L0.047736 35.764C-0.214831 36.0164 -0.321167 36.3936 -0.226977 36.7453C-0.135803 37.0998 0.140175 37.3758 0.494632 37.467C0.495165 37.4671 0.495698 37.4672 0.496231 37.4674L0.558129 37.2252M11.4 24.4118L9.57213 29.0961L9.42679 29.0234L9.33643 28.9783L1.29735 37.0173M0.558129 37.2252C0.822347 37.2964 1.10735 37.2163 1.29735 37.0173M0.558129 37.2252C0.290941 37.1569 0.0831286 36.9491 0.0148474 36.6819L0.558129 37.2252ZM1.29735 37.0173L1.47412 37.1941L1.47596 37.1923C1.47668 37.1915 1.47741 37.1908 1.47813 37.19L1.29735 37.0173ZM37.9852 36.6819L38.2265 36.747C38.2267 36.7464 38.2268 36.7459 38.227 36.7454C38.2271 36.7448 38.2272 36.7443 38.2274 36.7438L37.9852 36.6819ZM37.9852 36.6819C37.9169 36.9491 37.7091 37.1569 37.4419 37.2252L37.7773 35.9427M37.9852 36.6819C38.0564 36.4177 37.9763 36.1327 37.7773 35.9427M37.7773 35.9427L37.9541 35.7659L37.9523 35.7641C37.9515 35.7633 37.9508 35.7626 37.95 35.7619L37.7773 35.9427ZM30.5768 23.2915L30.4 23.1147L30.2232 23.2915L30.4 23.4682L30.5768 23.2915ZM28.0282 25.84L27.8515 25.6632L27.6747 25.84L27.8515 26.0168L28.0282 25.84ZM26.6 24.7653L26.7768 24.5885H26.4232L26.6 24.7653ZM22.19 26.21L22.04 26.0975L21.89 26.21L19 28.3775L16.11 26.21L15.96 26.0975L15.81 26.21L12.8135 28.4567L11.0769 27.5884L11.9861 26.6791C12.088 26.6102 12.1731 26.5246 12.242 26.4292L19.0001 19.6682L25.7609 26.4262C25.8299 26.5281 25.9156 26.6133 26.0111 26.6822L26.9223 27.5888L25.1865 28.4567L22.19 26.21ZM20.01 6.89713L23.267 8.39031L20.01 9.67584V6.89713Z" fill="#027E45" stroke="#027E45" stroke-width="0.5"/>
</g>
<defs>
<clipPath id="clip0_48_30">
<rect width="38" height="38" fill="white"/>
</clipPath>
</defs>
</svg>
