<svg width="40" height="34" viewBox="0 0 40 34" fill="none" xmlns="http://www.w3.org/2000/svg">
<path d="M20.0238 0.56C19.8189 0.554063 19.62 0.63125 19.4716 0.77375C19.3231 0.91625 19.24 1.11516 19.24 1.32V7.04078C19.2281 7.12094 19.2281 7.20406 19.24 7.28422V13.9253L12.4 20.7653L9.13735 17.5027C8.99188 17.3572 8.79297 17.277 8.58813 17.28C8.38922 17.283 8.20219 17.3631 8.06266 17.5027L1.22266 24.3427C1.02375 24.5327 0.943597 24.8177 1.01485 25.0819C1.08313 25.3491 1.29094 25.5569 1.55813 25.6252C1.82235 25.6964 2.10735 25.6162 2.29735 25.4173L8.6 19.1147L11.3253 21.84L1.22266 31.9427C1.02375 32.1327 0.943597 32.4177 1.01485 32.6819C1.08313 32.9491 1.29094 33.1569 1.55813 33.2252C1.82235 33.2964 2.10735 33.2162 2.29735 33.0173L10.5653 24.7494L10.5386 24.7998L14.0002 26.5306L16.96 24.31L20 26.59L23.04 24.31L25.9998 26.5306L29.4614 24.7998L29.4347 24.7494L37.7027 33.0173C37.8927 33.2162 38.1777 33.2964 38.4419 33.2252C38.7091 33.1569 38.9169 32.9491 38.9852 32.6819C39.0564 32.4177 38.9763 32.1327 38.7773 31.9427L28.6747 21.84L31.4 19.1147L37.7027 25.4173C37.8927 25.6162 38.1777 25.6964 38.4419 25.6252C38.7091 25.5569 38.9169 25.3491 38.9852 25.0819C39.0564 24.8177 38.9763 24.5327 38.7773 24.3427L31.9373 17.5027C31.7919 17.3572 31.593 17.277 31.3881 17.28C31.1892 17.283 31.0022 17.3631 30.8627 17.5027L27.6 20.7653L20.76 13.9253V7.67609L27.1191 5.17047C27.4041 5.05766 27.5911 4.7875 27.6 4.48469C27.6089 4.17891 27.4338 3.89984 27.1577 3.77219L20.3177 0.63125C20.2256 0.586718 20.1247 0.562968 20.0238 0.56ZM20.76 2.5075L24.9044 4.4075L20.76 6.04328V2.5075ZM20 15.3147L26.9558 22.2675C27.0122 22.3566 27.0864 22.4308 27.1725 22.4902L28.3452 23.6569L26.1602 24.7494L23.04 22.41L20 24.69L16.96 22.41L13.8398 24.7494L11.6548 23.6569L12.8275 22.4842C12.9166 22.4278 12.9908 22.3536 13.0502 22.2675L20 15.3147Z" fill="#027E45" stroke-width="0.5"/>
</svg>