<svg width="30" height="21" viewBox="0 0 42 21" fill="none" xmlns="http://www.w3.org/2000/svg">
<path d="M31.9346 18.1951L31.9226 18.2092L31.9117 18.224C31.5071 18.7755 31.5561 19.5539 32.0569 20.0493C32.6074 20.5938 33.495 20.589 34.0396 20.0385L42.4127 11.5743L42.4256 11.5613L42.4375 11.5473L42.5243 11.4457L42.5363 11.4317L42.5472 11.4168C42.9518 10.8654 42.9028 10.0869 42.402 9.59157L33.9378 1.21844L33.9248 1.20555L33.9108 1.19366L33.8092 1.10687L33.7951 1.09488L33.7803 1.08396C33.2288 0.679419 32.4504 0.728417 31.9551 1.22916L31.9422 1.24219L31.9303 1.25612L31.8435 1.35776L31.8315 1.37179L31.8206 1.38668C31.416 1.93811 31.465 2.71652 31.9658 3.21188L39.4329 10.599L32.0461 18.0665L32.0333 18.0796L32.0214 18.0935L31.9346 18.1951Z" fill="#027E45" stroke="#027E45"/>
<path d="M22.3636 19.4313C22.0416 19.1128 22.0098 18.6119 22.2699 18.2574L22.3567 18.1557L30.0951 10.3327L22.2725 2.59397C21.9505 2.27547 21.9187 1.77452 22.1788 1.41999L22.2656 1.31835C22.5841 0.996386 23.085 0.964561 23.4396 1.22466L23.5412 1.31145L32.0054 9.68458C32.3274 10.0031 32.3592 10.504 32.0991 10.8586L32.0124 10.9602L23.6392 19.4244C23.2889 19.7786 22.7178 19.7817 22.3636 19.4313Z" fill="#027E45" fill-opacity="0.4"/>
<path d="M21.8897 17.9327L21.8777 17.9467L21.8668 17.9616C21.4622 18.513 21.5112 19.2914 22.012 19.7868C22.5624 20.3314 23.4501 20.3265 23.9947 19.7761L32.3678 11.3118L32.3807 11.2988L32.3926 11.2849L32.4794 11.1833L32.4914 11.1692L32.5023 11.1543C32.9068 10.6029 32.8578 9.82448 32.3571 9.32912L23.8929 0.955985L23.8798 0.943102L23.8659 0.931209L23.7643 0.84442L23.7502 0.832432L23.7353 0.821511C23.1839 0.416968 22.4055 0.465966 21.9101 0.966712L21.8973 0.979735L21.8854 0.993666L21.7986 1.0953L21.7866 1.10934L21.7757 1.12423C21.3711 1.67566 21.4201 2.45407 21.9209 2.94943L29.388 10.3366L22.0012 17.8041L21.9883 17.8171L21.9765 17.831L21.8897 17.9327Z" stroke="#027E45" stroke-opacity="0.4"/>
<path d="M12.3636 19.4312C12.0416 19.1127 12.0098 18.6117 12.2699 18.2572L12.3567 18.1555L20.0951 10.3326L12.2725 2.59379C11.9505 2.27529 11.9187 1.77434 12.1788 1.4198L12.2656 1.31816C12.5841 0.996202 13.085 0.964378 13.4396 1.22447L13.5412 1.31126L22.0054 9.6844C22.3274 10.0029 22.3592 10.5039 22.0991 10.8584L22.0124 10.96L13.6392 19.4243C13.2889 19.7784 12.7178 19.7815 12.3636 19.4312Z" fill="#027E45" fill-opacity="0.2"/>
<path d="M11.8897 17.9325L11.8777 17.9465L11.8668 17.9614C11.4622 18.5128 11.5112 19.2913 12.012 19.7866C12.5624 20.3312 13.4501 20.3264 13.9947 19.7759L22.3678 11.3117L22.3807 11.2986L22.3926 11.2847L22.4794 11.1831L22.4914 11.169L22.5023 11.1541C22.9068 10.6027 22.8578 9.8243 22.3571 9.32894L13.8929 0.955802L13.8798 0.942919L13.8659 0.931026L13.7643 0.844237L13.7502 0.832249L13.7353 0.821328C13.1839 0.416785 12.4055 0.465783 11.9101 0.966529L11.8973 0.979552L11.8854 0.993482L11.7986 1.09512L11.7866 1.10916L11.7757 1.12404C11.3711 1.67547 11.4201 2.45389 11.9209 2.94925L19.388 10.3364L12.0012 17.8039L11.9883 17.8169L11.9765 17.8309L11.8897 17.9325Z" stroke="#027E45" stroke-opacity="0.2"/>
<path d="M1.36359 19.431C1.04163 19.1125 1.0098 18.6115 1.2699 18.257L1.35669 18.1554L9.09506 10.3324L1.2725 2.59361C0.950533 2.27511 0.91871 1.77416 1.17881 1.41962L1.26559 1.31798C1.58409 0.996019 2.08504 0.964195 2.43958 1.22429L2.54122 1.31108L11.0054 9.68422C11.3274 10.0027 11.3592 10.5037 11.0991 10.8582L11.0124 10.9598L2.63921 19.4241C2.28887 19.7782 1.71775 19.7813 1.36359 19.431Z" fill="#027E45" fill-opacity="0.1"/>
<path d="M0.889662 17.9323L0.877675 17.9463L0.866755 17.9612C0.462213 18.5127 0.511208 19.2911 1.01196 19.7864C1.56243 20.331 2.45012 20.3262 2.99468 19.7757L11.3678 11.3115L11.3807 11.2985L11.3926 11.2845L11.4794 11.1829L11.4914 11.1688L11.5023 11.154C11.9068 10.6025 11.8578 9.82412 11.3571 9.32876L2.89285 0.955619L2.87983 0.942736L2.8659 0.930843L2.76426 0.844054L2.75022 0.832066L2.73534 0.821144C2.18391 0.416602 1.40549 0.4656 0.910134 0.966346L0.897251 0.979368L0.885356 0.993299L0.798568 1.09494L0.78658 1.10898L0.77566 1.12386C0.371118 1.67529 0.420114 2.45371 0.92086 2.94907L8.38798 10.3362L1.00122 17.8037L0.988341 17.8167L0.97645 17.8307L0.889662 17.9323Z" stroke="#027E45" stroke-opacity="0.1"/>
</svg>
