<svg width="42" height="21" fill="none" xmlns="http://www.w3.org/2000/svg">
<path d="M31.9347 18.1951L31.9227 18.2092L31.9118 18.224C31.5073 18.7755 31.5563 19.5539 32.057 20.0493C32.6075 20.5938 33.4952 20.589 34.0397 20.0385L42.4129 11.5743L42.4257 11.5613L42.4376 11.5473L42.5244 11.4457L42.5364 11.4317L42.5473 11.4168C42.9519 10.8654 42.9029 10.0869 42.4021 9.59157L33.9379 1.21844L33.9249 1.20555L33.9109 1.19366L33.8093 1.10687L33.7953 1.09488L33.7804 1.08396C33.229 0.679419 32.4505 0.728417 31.9552 1.22916L31.9423 1.24219L31.9304 1.25612L31.8436 1.35776L31.8316 1.37179L31.8207 1.38668C31.4162 1.93811 31.4652 2.71652 31.9659 3.21188L39.433 10.599L32.0463 18.0665L32.0334 18.0796L32.0215 18.0935L31.9347 18.1951Z" fill="#027E45" stroke="#027E45"/>
<path d="M22.3635 19.4313C22.0416 19.1128 22.0097 18.6119 22.2698 18.2574L22.3566 18.1557L30.095 10.3327L22.2724 2.59397C21.9505 2.27547 21.9186 1.77452 22.1787 1.41999L22.2655 1.31835C22.584 0.996386 23.085 0.964561 23.4395 1.22466L23.5412 1.31145L32.0054 9.68458C32.3274 10.0031 32.3592 10.504 32.0991 10.8586L32.0123 10.9602L23.6392 19.4244C23.2888 19.7786 22.7177 19.7817 22.3635 19.4313Z" fill="#027E45" fill-opacity="0.4"/>
<path d="M21.8896 17.9327L21.8776 17.9467L21.8667 17.9616C21.4622 18.513 21.5111 19.2914 22.0119 19.7868C22.5624 20.3314 23.4501 20.3265 23.9946 19.7761L32.3678 11.3118L32.3806 11.2988L32.3925 11.2849L32.4793 11.1833L32.4913 11.1692L32.5022 11.1543C32.9068 10.6029 32.8578 9.82448 32.357 9.32912L23.8928 0.955985L23.8798 0.943102L23.8658 0.931209L23.7642 0.84442L23.7502 0.832432L23.7353 0.821511C23.1838 0.416968 22.4054 0.465966 21.9101 0.966712L21.8972 0.979735L21.8853 0.993666L21.7985 1.0953L21.7865 1.10934L21.7756 1.12423C21.3711 1.67566 21.4201 2.45407 21.9208 2.94943L29.3879 10.3366L22.0012 17.8041L21.9883 17.8171L21.9764 17.831L21.8896 17.9327Z" stroke="#027E45" stroke-opacity="0.4"/>
<path d="M12.3636 19.4312C12.0416 19.1127 12.0098 18.6117 12.2699 18.2572L12.3567 18.1555L20.0951 10.3326L12.2725 2.59379C11.9505 2.27529 11.9187 1.77434 12.1788 1.4198L12.2656 1.31816C12.5841 0.996202 13.085 0.964378 13.4396 1.22447L13.5412 1.31126L22.0054 9.6844C22.3274 10.0029 22.3592 10.5039 22.0991 10.8584L22.0124 10.96L13.6392 19.4243C13.2889 19.7784 12.7178 19.7815 12.3636 19.4312Z" fill="#027E45" fill-opacity="0.2"/>
<path d="M11.8897 17.9325L11.8777 17.9465L11.8668 17.9614C11.4622 18.5128 11.5112 19.2913 12.012 19.7866C12.5624 20.3312 13.4501 20.3264 13.9947 19.7759L22.3678 11.3117L22.3807 11.2986L22.3926 11.2847L22.4794 11.1831L22.4914 11.169L22.5023 11.1541C22.9068 10.6027 22.8578 9.8243 22.3571 9.32894L13.8929 0.955802L13.8798 0.942919L13.8659 0.931026L13.7643 0.844237L13.7502 0.832249L13.7353 0.821328C13.1839 0.416785 12.4055 0.465783 11.9101 0.966529L11.8973 0.979552L11.8854 0.993482L11.7986 1.09512L11.7866 1.10916L11.7757 1.12404C11.3711 1.67547 11.4201 2.45389 11.9209 2.94925L19.388 10.3364L12.0012 17.8039L11.9883 17.8169L11.9765 17.8309L11.8897 17.9325Z" stroke="#027E45" stroke-opacity="0.2"/>
<path d="M1.36365 19.431C1.04169 19.1125 1.00987 18.6115 1.26996 18.257L1.35675 18.1554L9.09512 10.3324L1.27256 2.59361C0.950594 2.27511 0.918771 1.77416 1.17887 1.41962L1.26566 1.31798C1.58415 0.996019 2.0851 0.964195 2.43964 1.22429L2.54128 1.31108L11.0055 9.68422C11.3275 10.0027 11.3593 10.5037 11.0992 10.8582L11.0124 10.9598L2.63928 19.4241C2.28893 19.7782 1.71781 19.7813 1.36365 19.431Z" fill="#027E45" fill-opacity="0.1"/>
<path d="M0.889723 17.9323L0.877736 17.9463L0.866816 17.9612C0.462274 18.5127 0.511269 19.2911 1.01202 19.7864C1.56249 20.331 2.45019 20.3262 2.99474 19.7757L11.3679 11.3115L11.3808 11.2985L11.3926 11.2845L11.4794 11.1829L11.4914 11.1688L11.5023 11.154C11.9069 10.6025 11.8579 9.82412 11.3571 9.32876L2.89291 0.955619L2.87989 0.942736L2.86596 0.930843L2.76432 0.844054L2.75028 0.832066L2.7354 0.821144C2.18397 0.416602 1.40555 0.4656 0.910195 0.966346L0.897312 0.979368L0.885417 0.993299L0.798629 1.09494L0.786641 1.10898L0.775721 1.12386C0.371179 1.67529 0.420175 2.45371 0.920921 2.94907L8.38804 10.3362L1.00128 17.8037L0.988402 17.8167L0.976511 17.8307L0.889723 17.9323Z" stroke="#027E45" stroke-opacity="0.1"/>
</svg>
