<svg width="222" height="37" viewBox="0 0 222 37" fill="none" xmlns="http://www.w3.org/2000/svg">
  <path d="M25.5214 12.9839V25.6623H12.8429C5.83175 25.6623 0.164551 19.9951 0.164551 12.9839V0.305542H12.8429C19.8317 0.305542 25.5214 5.99514 25.5214 12.9839Z" fill="#027E45"/>
  <path d="M27.2239 12.9839V25.6623H39.9023C46.9135 25.6623 52.5807 19.9951 52.5807 12.9839V0.305542H39.9023C32.8911 0.305542 27.2239 5.99514 27.2239 12.9839Z" fill="#157DA1"/>
  <path d="M52.5807 36.3024C50.1391 36.3024 48.7951 35.3616 47.7871 34.6672C46.9359 34.0848 46.3983 33.7264 45.1439 33.7264C43.8895 33.7488 43.3743 34.1072 42.5231 34.712C41.5151 35.4288 40.1487 36.4368 37.6175 36.4592C35.1087 36.504 33.6975 35.5184 32.6895 34.824C31.8159 34.2416 31.3007 33.8832 30.0463 33.8832C28.7919 33.9056 28.2767 34.264 27.4255 34.8688C26.4175 35.5856 25.0511 36.5936 22.5199 36.616C22.4751 36.616 22.4527 36.616 22.4079 36.616C19.9663 36.616 18.5999 35.6752 17.5919 34.9808C16.7183 34.3984 16.2031 34.04 14.9487 34.04C13.6943 34.0624 13.1791 34.4208 12.3279 35.0256C11.3199 35.7424 9.95353 36.7504 7.42233 36.7728H7.31033C4.86873 36.7728 3.47993 35.832 2.49433 35.1376C1.71033 34.6 1.19513 34.264 0.142334 34.2192V30.232C2.44953 30.2768 3.77113 31.1952 4.73433 31.8672C5.58553 32.4496 6.12313 32.808 7.37753 32.808C8.63193 32.7856 9.14713 32.4272 9.99833 31.8224C11.0063 31.1056 12.3727 30.0976 14.9039 30.0752C14.9487 30.0752 14.9711 30.0752 15.0159 30.0752C17.4575 30.0752 18.8239 31.016 19.8319 31.7104C20.6831 32.2928 21.2207 32.6512 22.4751 32.6512C23.7295 32.6288 24.2447 32.2704 25.0959 31.6432C26.1039 30.9264 27.4703 29.9184 30.0015 29.896H30.1135C32.5551 29.896 33.9215 30.8368 34.9295 31.5312C35.7807 32.1136 36.3183 32.472 37.5727 32.472C38.8271 32.4496 39.3423 32.0912 40.1935 31.4864C41.2015 30.7696 42.5679 29.7616 45.0991 29.7392C47.6303 29.7168 49.0191 30.68 50.0271 31.3744C50.8783 31.9568 51.3935 32.2928 52.5583 32.3152V36.3024H52.5807Z" fill="#28ABE3"/>
  <path d="M85.3071 21.0703V21.8095C85.3071 24.5423 83.0671 26.7823 80.3343 26.7823H62.1455V24.8783C62.1455 23.9375 62.8847 23.1535 63.8255 23.1311H79.8639C79.9087 23.1311 79.9311 23.1311 79.9759 23.1311C80.0207 23.1311 80.0431 23.1311 80.0879 23.1311C80.9615 23.0863 81.6335 22.3695 81.6783 21.4959C81.6783 21.4735 81.6783 21.4511 81.6783 21.4287C81.6783 21.4063 81.6783 21.3839 81.6783 21.3615C81.6559 20.4431 80.8943 19.7263 79.9759 19.7263H66.3119C63.5791 19.7263 61.3391 17.4863 61.3391 14.7535V14.0143C61.3391 11.2815 63.5791 9.0415 66.3119 9.0415H84.5007V10.9231C84.5007 11.8863 83.7167 12.6703 82.7535 12.6703H66.8047C66.7599 12.6703 66.7375 12.6703 66.6927 12.6703C66.6479 12.6703 66.6255 12.6703 66.5807 12.6703C65.6847 12.7375 64.9903 13.4543 64.9903 14.3727C64.9903 15.3135 65.7519 16.0751 66.6927 16.0751H80.3343C83.0895 16.0975 85.3071 18.3375 85.3071 21.0703Z" fill="#157DA1"/>
  <path d="M92.0272 19.7488C92.0496 19.7488 92.072 19.7488 92.0944 19.7488C92.1168 19.7488 92.1392 19.7488 92.1616 19.7488H109.925V14.0368C109.925 11.304 107.685 9.06396 104.952 9.06396H91.736C89.0032 9.06396 86.7632 11.304 86.7632 14.0368V21.8096C86.7632 24.5424 89.0032 26.7824 91.736 26.7824H109.925V24.8784C109.925 23.96 109.208 23.1984 108.29 23.1312C108.245 23.1312 108.222 23.1312 108.178 23.1312H92.2288C92.184 23.1312 92.1616 23.1312 92.1168 23.1312C92.072 23.1312 92.0272 23.1312 92.0048 23.1312C91.1088 23.064 90.4144 22.3248 90.4144 21.4288V19.7264H92.0272V19.7488ZM90.392 14.3952C90.392 13.4992 91.0864 12.76 91.9824 12.6928C92.0048 12.6928 92.0272 12.6928 92.0496 12.6928C92.072 12.6928 92.0944 12.6928 92.1168 12.6928C92.1392 12.6928 92.1616 12.6928 92.184 12.6928H104.594C104.638 12.6928 104.661 12.6928 104.706 12.6928C105.602 12.76 106.296 13.4768 106.296 14.3952V16.0976H104.706C104.661 16.0976 104.638 16.0976 104.594 16.0976C104.549 16.0976 104.526 16.0976 104.482 16.0976H92.184C92.1616 16.0976 92.1392 16.0976 92.1168 16.0976C92.0944 16.0976 92.072 16.0976 92.0496 16.0976H90.392V14.3952Z" fill="#157DA1"/>
  <path d="M115.838 9.06396V28.104C115.838 30.8368 113.598 33.0768 110.865 33.0768H105.915V31.1728C105.915 30.2544 106.632 29.4928 107.55 29.4256C107.595 29.4256 107.617 29.4256 107.662 29.4256H110.485C110.529 29.4256 110.552 29.4256 110.597 29.4256C111.493 29.3584 112.187 28.6192 112.187 27.7232V9.06396H115.838Z" fill="#157DA1"/>
  <path d="M136.312 9.06396H123.096C120.363 9.06396 118.123 11.304 118.123 14.0368V21.8096C118.123 24.5424 120.363 26.7824 123.096 26.7824H136.312C139.045 26.7824 141.285 24.5424 141.285 21.8096V14.0368C141.285 11.2816 139.045 9.06396 136.312 9.06396ZM137.633 21.4288C137.633 22.3248 136.939 23.064 136.043 23.1312C135.998 23.1312 135.976 23.1312 135.931 23.1312H123.432C123.387 23.1312 123.365 23.1312 123.32 23.1312C122.536 23.0864 121.909 22.504 121.752 21.7424C121.729 21.6528 121.729 21.5408 121.729 21.4288C121.729 21.3168 121.729 21.2272 121.752 21.1152V14.6864C121.729 14.5968 121.729 14.4848 121.729 14.3728C121.729 14.2608 121.729 14.1712 121.752 14.0592C121.886 13.2976 122.536 12.7152 123.32 12.6704C123.365 12.6704 123.387 12.6704 123.432 12.6704H135.864C135.886 12.6704 135.909 12.6704 135.931 12.6704C135.953 12.6704 135.976 12.6704 135.998 12.6704C136.021 12.6704 136.043 12.6704 136.065 12.6704C136.961 12.7376 137.656 13.4544 137.656 14.3728V21.4288H137.633Z" fill="#157DA1"/>
  <path d="M191.237 10.8111V12.7151H171.726V21.4511C171.726 22.3471 172.421 23.0863 173.317 23.1535C173.362 23.1535 173.384 23.1535 173.429 23.1535C173.474 23.1535 173.496 23.1535 173.541 23.1535H189.49C189.534 23.1535 189.557 23.1535 189.602 23.1535C190.52 23.2207 191.237 23.9823 191.237 24.9007V26.8047H173.048C170.315 26.8047 168.075 24.5647 168.075 21.8319V2.76953H170.046C170.069 2.76953 170.091 2.76953 170.114 2.76953C170.965 2.83673 171.659 3.48633 171.749 4.33753V9.06393H189.512C189.557 9.06393 189.579 9.06393 189.624 9.06393C190.52 9.13113 191.237 9.89273 191.237 10.8111Z" fill="#157DA1"/>
  <path d="M196.322 9.06396H192.67V26.7824H196.322V9.06396Z" fill="#157DA1"/>
  <path d="M221.768 14.0368V26.7824H218.117V14.3952C218.117 13.4992 217.422 12.76 216.526 12.6928C216.482 12.6928 216.459 12.6928 216.414 12.6928C216.37 12.6928 216.347 12.6928 216.302 12.6928H202.235V26.7824H198.584V9.06396H216.773C219.528 9.06396 221.768 11.2816 221.768 14.0368Z" fill="#157DA1"/>
  <path d="M112.187 5.25593V7.07033H114.001C115.009 7.07033 115.816 6.26393 115.816 5.25593V3.44153H114.001C112.993 3.44153 112.187 4.24793 112.187 5.25593Z" fill="#157DA1"/>
  <path d="M192.625 5.25593V7.07033H194.44C195.448 7.07033 196.254 6.26393 196.254 5.25593V3.44153H194.44C193.432 3.44153 192.625 4.24793 192.625 5.25593Z" fill="#157DA1"/>
  <path d="M166.776 21.0703V21.8095C166.776 24.5423 164.536 26.7823 161.803 26.7823H143.614V24.8783C143.614 23.9375 144.354 23.1535 145.294 23.1311H161.31C161.355 23.1311 161.378 23.1311 161.422 23.1311C161.467 23.1311 161.49 23.1311 161.534 23.1311C162.408 23.0863 163.08 22.3695 163.125 21.4959C163.125 21.4735 163.125 21.4511 163.125 21.4287C163.125 21.4063 163.125 21.3839 163.125 21.3615C163.102 20.4431 162.341 19.7263 161.422 19.7263H147.758C145.026 19.7263 142.786 17.4863 142.786 14.7535V14.0143C142.786 11.2815 145.026 9.0415 147.758 9.0415H165.947V10.9231C165.947 11.8863 165.163 12.6703 164.2 12.6703H148.251C148.206 12.6703 148.184 12.6703 148.139 12.6703C148.094 12.6703 148.072 12.6703 148.027 12.6703C147.131 12.7375 146.437 13.4543 146.437 14.3727C146.437 15.3135 147.198 16.0751 148.139 16.0751H161.781C164.536 16.0975 166.776 18.3375 166.776 21.0703Z" fill="#157DA1"/>
</svg>