<svg width="83" height="58" viewBox="0 0 83 58" fill="none" xmlns="http://www.w3.org/2000/svg">
<path d="M39.8272 19.8962V39.7923H19.9311C8.92842 39.7923 0.0349121 30.8988 0.0349121 19.8962V0H19.9311C30.8985 0 39.8272 8.92866 39.8272 19.8962Z" fill="white"/>
<path d="M42.499 19.8962V39.7923H62.3952C73.3978 39.7923 82.2913 30.8988 82.2913 19.8962V0H62.3952C51.3925 0 42.499 8.92866 42.499 19.8962Z" fill="white"/>
<path d="M82.2913 56.4894C78.4597 56.4894 76.3506 55.013 74.7687 53.9233C73.433 53.0093 72.5893 52.4469 70.6208 52.4469C68.6523 52.4821 67.8438 53.0445 66.508 53.9936C64.9261 55.1185 62.7818 56.7003 58.8096 56.7355C54.8726 56.8058 52.658 55.2591 51.0761 54.1694C49.7052 53.2554 48.8967 52.693 46.9282 52.693C44.9597 52.7281 44.1512 53.2906 42.8154 54.2397C41.2335 55.3645 39.0892 56.9464 35.1171 56.9815C35.0467 56.9815 35.0116 56.9815 34.9413 56.9815C31.1097 56.9815 28.9654 55.5052 27.3836 54.4154C26.0126 53.5015 25.2041 52.939 23.2356 52.939C21.2671 52.9742 20.4586 53.5366 19.1228 54.4857C17.5409 55.6106 15.3967 57.1925 11.4245 57.2276H11.2487C7.41711 57.2276 5.23768 55.7512 3.69098 54.6615C2.46065 53.8179 1.65215 53.2906 0 53.2203V46.9632C3.62068 47.0335 5.69466 48.4747 7.2062 49.5293C8.54199 50.4432 9.38564 51.0057 11.3542 51.0057C13.3227 50.9705 14.1312 50.4081 15.467 49.459C17.0488 48.3341 19.1931 46.7522 23.1653 46.7171C23.2356 46.7171 23.2708 46.7171 23.3411 46.7171C27.1727 46.7171 29.3169 48.1935 30.8988 49.2832C32.2346 50.1972 33.0782 50.7596 35.0467 50.7596C37.0153 50.7244 37.8238 50.162 39.1596 49.1777C40.7414 48.0529 42.8857 46.471 46.8579 46.4359H47.0336C50.8652 46.4359 53.0095 47.9123 54.5914 49.002C55.9272 49.9159 56.7708 50.4784 58.7393 50.4784C60.7079 50.4432 61.5163 49.8808 62.8521 48.9317C64.434 47.8068 66.5783 46.225 70.5505 46.1898C74.5227 46.1547 76.7021 47.6662 78.284 48.7559C79.6197 49.6699 80.4282 50.1972 82.2562 50.2323V56.4894H82.2913Z" fill="white"/>
</svg>
