<svg width="53" height="37" viewBox="0 0 53 37" fill="none" xmlns="http://www.w3.org/2000/svg">
<path d="M25.379 12.6784V25.3568H12.7006C5.68939 25.3568 0.0221863 19.6896 0.0221863 12.6784V0H12.7006C19.6894 0 25.379 5.6896 25.379 12.6784Z" fill="#027E45"/>
<path d="M27.0816 12.6784V25.3568H39.76C46.7712 25.3568 52.4384 19.6896 52.4384 12.6784V0H39.76C32.7488 0 27.0816 5.6896 27.0816 12.6784Z" fill="#157DA1"/>
<path d="M52.4384 35.9968C49.9968 35.9968 48.6528 35.056 47.6448 34.3616C46.7936 33.7792 46.256 33.4208 45.0016 33.4208C43.7472 33.4432 43.232 33.8016 42.3808 34.4064C41.3728 35.1232 40.0064 36.1312 37.4752 36.1536C34.9664 36.1984 33.5552 35.2128 32.5472 34.5184C31.6736 33.936 31.1584 33.5776 29.904 33.5776C28.6496 33.6 28.1344 33.9584 27.2832 34.5632C26.2752 35.28 24.9088 36.288 22.3776 36.3104C22.3328 36.3104 22.3104 36.3104 22.2656 36.3104C19.824 36.3104 18.4576 35.3696 17.4496 34.6752C16.576 34.0928 16.0608 33.7344 14.8064 33.7344C13.552 33.7568 13.0368 34.1152 12.1856 34.72C11.1776 35.4368 9.8112 36.4448 7.28 36.4672H7.168C4.7264 36.4672 3.3376 35.5264 2.352 34.832C1.568 34.2944 1.0528 33.9584 0 33.9136V29.9264C2.3072 29.9712 3.6288 30.8896 4.592 31.5616C5.4432 32.144 5.9808 32.5024 7.2352 32.5024C8.4896 32.48 9.0048 32.1216 9.856 31.5168C10.864 30.8 12.2304 29.792 14.7616 29.7696C14.8064 29.7696 14.8288 29.7696 14.8736 29.7696C17.3152 29.7696 18.6816 30.7104 19.6896 31.4048C20.5408 31.9872 21.0784 32.3456 22.3328 32.3456C23.5872 32.3232 24.1024 31.9648 24.9536 31.3376C25.9616 30.6208 27.328 29.6128 29.8592 29.5904H29.9712C32.4128 29.5904 33.7792 30.5312 34.7872 31.2256C35.6384 31.808 36.176 32.1664 37.4304 32.1664C38.6848 32.144 39.2 31.7856 40.0512 31.1808C41.0592 30.464 42.4256 29.456 44.9568 29.4336C47.488 29.4112 48.8768 30.3744 49.8848 31.0688C50.736 31.6512 51.2512 31.9872 52.416 32.0096V35.9968H52.4384Z" fill="#28ABE3"/>
</svg>
