<svg width="30" height="30" viewBox="0 0 30 30" fill="none" xmlns="http://www.w3.org/2000/svg">
<path d="M26.7701 28.6972C23.5129 31.9544 15.1714 28.8938 8.13879 21.8612C1.10621 14.8286 -1.95435 6.48712 1.30284 3.22992L3.44745 1.0853C4.928 -0.39524 7.36757 -0.356104 8.89639 1.17272L12.2182 4.49453C13.747 6.02336 13.7862 8.46293 12.3056 9.94348L11.845 10.4041C11.0456 11.2035 10.9674 12.493 11.7102 13.3931C12.4266 14.2613 13.199 15.1261 14.0365 15.9635C14.8739 16.801 15.7387 17.5734 16.6069 18.2898C17.507 19.0326 18.7965 18.9544 19.5959 18.155L20.0565 17.6944C21.5371 16.2138 23.9766 16.253 25.5055 17.7818L28.8273 21.1036C30.3561 22.6324 30.3952 25.072 28.9147 26.5525L26.7701 28.6972Z" fill="#157DA1"/>
</svg>