<svg width="31" height="25" viewBox="0 0 31 25" fill="none" xmlns="http://www.w3.org/2000/svg">
<path fill-rule="evenodd" clip-rule="evenodd" d="M0 8.15698C0 3.652 3.652 0 8.15698 0H22.343C26.848 0 30.5 3.652 30.5 8.15698V16.6686C30.5 21.1736 26.848 24.8256 22.343 24.8256H8.15698C3.652 24.8256 0 21.1736 0 16.6686V8.15698ZM7.18837 7.55703C6.857 7.3085 6.3869 7.37566 6.13837 7.70703C5.88984 8.0384 5.957 8.5085 6.28837 8.75703L13.6 14.2407C14.5778 14.9741 15.9222 14.9741 16.9 14.2407L24.2116 8.75703C24.543 8.5085 24.6102 8.0384 24.3616 7.70703C24.1131 7.37566 23.643 7.3085 23.3116 7.55703L16 13.0407C15.5556 13.3741 14.9444 13.3741 14.5 13.0407L7.18837 7.55703Z" fill="#157DA1"/>
</svg>