<svg width="26" height="26" viewBox="0 0 26 26" fill="none" xmlns="http://www.w3.org/2000/svg">
<path d="M25.6968 5.4316C25.4158 5.61424 25.0154 5.78283 24.8468 5.97249C24.7836 6.03571 24.7485 6.10596 24.7625 6.1762V6.89973L24.5518 7.60921L24.3411 8.31166L24.1093 9.08436L23.6316 10.6649L23.168 12.2243L22.8168 13.3974C22.8168 13.5801 22.8097 13.7627 22.7957 13.9383C22.7465 14.6127 22.606 15.2589 22.3812 15.863C22.2478 16.2353 22.0862 16.5936 21.8895 16.9308C21.8193 17.0642 21.735 17.1977 21.6507 17.3241C21.3697 17.7667 21.0325 18.1741 20.6602 18.5324C20.3722 18.8204 20.0561 19.0873 19.7119 19.3121C19.7119 19.3121 19.7119 19.3121 19.7049 19.3121C19.6487 19.3613 19.5855 19.4034 19.5152 19.4385C19.2975 19.586 19.0657 19.7125 18.8268 19.8249C18.6653 19.9092 18.5037 19.9794 18.3351 20.0426C18.3 20.0637 18.2579 20.0778 18.2227 20.0918C17.8223 20.2815 17.3587 20.4079 16.8951 20.4711C16.867 20.4782 16.8459 20.4782 16.8178 20.4852C16.5368 20.5344 16.2629 20.5765 15.9819 20.5976C15.8555 20.6116 15.722 20.6187 15.5956 20.6187L15.0968 20.5906L12.6944 20.4641C12.6944 20.4571 12.6874 20.4641 12.6874 20.4641L11.4792 20.4009C11.3879 20.4009 11.2895 20.4009 11.1982 20.3939C10.8189 20.3798 10.4536 20.3377 10.0883 20.2604C10.0813 20.2604 10.0813 20.2604 10.0813 20.2604C9.41399 20.134 8.77476 19.9092 8.17767 19.6071C7.84752 19.4385 7.52439 19.2489 7.22234 19.0311C7.0959 18.9398 6.97648 18.8414 6.85707 18.7361C6.51989 18.4551 6.21783 18.153 5.93685 17.844C5.89471 17.8018 5.85958 17.7597 5.82446 17.7175C5.78232 17.6754 5.74017 17.6262 5.70505 17.5841C5.43811 17.2469 5.21333 16.9027 5.03069 16.5374C4.8621 16.2143 4.72864 15.8701 4.62327 15.4907C4.58112 15.3573 4.546 15.2308 4.5179 15.0903C4.51088 15.0833 4.50385 15.0693 4.50385 15.0552C4.43361 14.7672 4.37039 14.4652 4.33527 14.1631C4.29312 13.9313 4.27204 13.6995 4.27204 13.4606C4.258 13.3693 4.258 13.271 4.258 13.1797L5.59968 11.1074L6.91326 9.08436L7.51035 8.16415L8.05123 7.33525L8.23387 7.04724V6.32372C8.24792 6.16215 8.25494 5.99356 8.24792 5.83902C8.24089 5.34731 8.14255 4.86964 7.98099 4.41304C7.82645 3.92835 7.60869 3.47175 7.3839 3.05028C7.11697 2.56559 6.83599 2.13007 6.60418 1.73669C6.25998 1.16068 6.02115 0.690038 6.08437 0.359884C6.59013 0.240467 7.124 0.177246 7.66488 0.177246H18.9041C21.8404 0.177246 24.3692 2.00363 25.4158 4.57461C25.5282 4.84856 25.6266 5.13657 25.6968 5.4316Z" fill="white"/>
<path d="M25.9286 7.20134V7.39099L24.9592 7.95292L24.3411 8.31115L23.6597 8.7045L22.2969 9.49822L20.9623 10.2709L19.5995 11.0576L19.0586 11.3737C19.0586 11.7108 18.9744 12.0199 18.8198 12.3008C18.6021 12.7082 18.2368 13.0454 17.7732 13.3334C17.3025 13.6214 16.7265 13.8532 16.0803 14.0217C16.0803 14.0217 16.0803 14.0147 16.0732 14.0217C13.5725 14.668 10.1586 14.3729 8.50081 13.1367C8.03719 12.7925 7.71406 12.3711 7.57357 11.8864C7.53142 11.7249 7.51035 11.5493 7.51035 11.3737V6.32333C7.51737 6.21797 7.44713 6.11261 7.32069 6.00725C6.94137 5.70521 6.04925 5.41722 5.05177 5.12923C4.27205 4.91149 3.43613 4.69374 2.73368 4.48302C2.17875 4.31444 1.7081 4.14586 1.42712 3.98431C1.55357 3.73846 1.70108 3.49262 1.85562 3.26082C2.83905 1.82088 4.3423 0.760246 6.08437 0.359873C6.59014 0.240463 7.124 0.177246 7.66489 0.177246H15.2514C19.0235 0.837511 22.5007 2.37579 25.4158 4.57433C25.5282 4.84827 25.6266 5.13626 25.6968 5.43127C25.8232 5.89486 25.9005 6.3725 25.9216 6.87121C25.9286 6.97657 25.9286 7.08896 25.9286 7.20134Z" fill="white"/>
<path d="M25.9286 7.20299V10.3007L25.774 10.7784L25.2472 12.4151L24.6993 14.1009L24.4113 15L24.1444 15.8359L23.8845 16.6297L23.6316 17.4164L23.4981 17.8309L23.3225 18.3788C23.3225 18.9126 23.3084 19.3833 23.2733 19.7836C23.2663 19.8258 23.2593 19.8679 23.2593 19.9101C23.2171 20.2824 23.1609 20.5985 23.0696 20.8654C23.0626 20.9075 23.0485 20.9497 23.0345 20.9848C22.8519 21.4906 22.5779 21.8137 22.1705 22.0244C22.0721 22.0806 21.9597 22.1228 21.8403 22.1649C21.468 22.2913 20.9974 22.3546 20.4214 22.3897C19.9999 22.4178 19.5152 22.4248 18.9673 22.4248H18.4826L17.6467 22.3897L17.4992 22.3827L15.9749 22.3194L14.4295 22.2562L9.33669 22.0455L8.01609 21.9893H7.83345C7.28554 21.9823 6.81489 21.9471 6.40747 21.891C5.81741 21.7996 5.36082 21.6451 5.01662 21.4133C4.5249 21.0972 4.2369 20.6336 4.06831 19.9873C4.02616 19.8328 3.99104 19.6713 3.96997 19.4956C3.89972 19.0882 3.8646 18.6176 3.84353 18.0908C3.84353 17.9854 3.84353 17.88 3.8365 17.7676C3.82948 17.7606 3.8365 17.7606 3.8365 17.7606V17.3532C3.82948 17.1495 3.82948 16.9388 3.82948 16.721L3.8646 15.5901L3.88567 14.7823L3.91377 13.841V13.7076L3.96294 11.9796L4.01211 10.2516L4.06129 8.62894L4.10343 7.0344L4.11748 6.61294C4.11748 6.39518 3.37991 6.26874 2.55804 6.16338C1.90476 6.07909 1.18826 6.00182 0.759766 5.90348C0.794888 5.74192 0.830011 5.58036 0.872158 5.42582C0.998599 4.92006 1.18826 4.44241 1.42709 3.98582C1.55354 3.73997 1.70105 3.49412 1.85559 3.26231C3.37288 2.595 4.9534 2.07519 6.60416 1.73802C8.05121 1.43597 9.56148 1.27441 11.1209 1.27441C16.291 1.27441 21.0676 3.02348 24.8468 5.97372C25.2121 6.2547 25.5703 6.55674 25.9216 6.87284C25.9286 6.97821 25.9286 7.0906 25.9286 7.20299Z" fill="white"/>
<path d="M25.9286 8.86572V12.0548L25.5423 12.7994L24.8047 14.2393L24.4113 14.998L24.0531 15.6934L23.8985 15.9954C23.8985 16.2132 23.8985 16.4239 23.8845 16.6276C23.8845 16.9297 23.8704 17.2177 23.8494 17.4846C23.8213 17.8007 23.7791 18.0887 23.737 18.3556C23.6316 18.9105 23.4841 19.3882 23.2734 19.7815C23.2453 19.8307 23.2172 19.8799 23.1891 19.922C23.1118 20.0485 23.0205 20.1679 22.9221 20.2803C22.7957 20.4348 22.6552 20.5683 22.4936 20.6807C22.2548 20.8633 21.9738 21.0108 21.6507 21.1232C21.2503 21.2707 20.7867 21.369 20.2388 21.4252C19.8805 21.4604 19.4871 21.4814 19.0586 21.4814L18.7636 21.4955L17.3025 21.5798H17.2955L15.7431 21.6711L14.1626 21.7624L11.985 21.8888L9.33672 22.0434L8.95038 22.0645C8.59213 22.0645 8.25495 22.0434 7.93182 22.0012C7.8967 21.9942 7.8686 21.9872 7.83348 21.9872C7.35581 21.9099 6.92029 21.7835 6.52692 21.6079C6.04925 21.3971 5.63481 21.1162 5.28358 20.779C4.9745 20.477 4.70757 20.1328 4.48981 19.7464C4.44064 19.6551 4.39147 19.5708 4.34932 19.4725C4.13859 19.058 3.97 18.5944 3.84356 18.0887C3.82248 18.0044 3.80141 17.9131 3.78736 17.8218C3.74521 17.6602 3.71009 17.4916 3.68902 17.316C3.61175 16.8664 3.5696 16.3888 3.54853 15.8901V15.883C3.5415 15.6793 3.53448 15.4826 3.53448 15.2719L3.19028 14.4501L3.14111 14.3236L3.09896 14.2183L2.57212 12.9609L2.48783 12.7572L1.98206 11.542L1.4201 10.1863C1.4201 10.1863 1.4201 10.1863 1.41308 10.1863L0.844092 8.81655L0.640381 8.31782V7.20095C0.640381 6.75842 0.682528 6.32291 0.759798 5.90145C0.79492 5.73989 0.830043 5.57833 0.87219 5.4238C1.46927 5.0796 2.09445 4.76351 2.73368 4.48254C4.19478 3.82927 5.76125 3.34459 7.38391 3.04957C8.59213 2.83182 9.84951 2.7124 11.121 2.7124C16.2559 2.7124 20.9131 4.57385 24.5518 7.60837C24.6923 7.72076 24.8258 7.83315 24.9592 7.95256C25.2894 8.24056 25.6125 8.5426 25.9286 8.86572Z" fill="white"/>
<path d="M25.9286 10.9615V14.5725L25.5282 15.4085L24.7696 16.9891L24.7626 17.0102C24.7626 17.3123 24.7485 17.5863 24.7274 17.8322C24.6572 18.6401 24.4605 19.1529 24.1374 19.469C23.9056 19.7079 23.6176 19.8414 23.2593 19.9116C23.2382 19.9186 23.2101 19.9186 23.1891 19.9257C23.0767 19.9467 22.9573 19.9608 22.8308 19.9608C22.3953 20.0029 21.8825 19.9748 21.2925 19.9327C21.2292 19.9327 21.159 19.9257 21.0887 19.9186C20.6602 19.8905 20.2037 19.8624 19.6979 19.8414C19.4239 19.8343 19.1359 19.8273 18.8409 19.8273H18.8268L18.1174 19.8835H18.1103L16.5158 19.9959L14.6964 20.1364L14.4295 20.1575L12.3011 20.3121L11.1982 20.3964L10.1094 20.4736C9.91976 20.4736 9.73713 20.4736 9.55449 20.4666C9.55449 20.4666 9.54747 20.4596 9.54747 20.4666C8.7537 20.4526 8.04422 20.4034 7.41201 20.284C6.82898 20.1856 6.31619 20.031 5.88067 19.7992C5.4311 19.5814 5.0588 19.2723 4.75675 18.8789C4.46874 18.4925 4.25801 18.0078 4.12454 17.4247C4.12454 17.4177 4.12454 17.4177 4.12454 17.4177C4.0262 16.947 3.97 16.399 3.97 15.7808L3.86463 15.5911L3.23945 14.4741L3.14813 14.3196L3.09896 14.2212L2.44568 13.0621L2.12255 12.479L1.71513 11.7554L1.01268 10.4979L0.640381 9.83749V7.25222C1.25854 6.84476 1.89777 6.48647 2.55807 6.16331C3.35887 5.75585 4.18776 5.41162 5.05178 5.13061C5.99306 4.8215 6.97649 4.57562 7.981 4.41404C8.99955 4.24543 10.0462 4.16113 11.121 4.16113C15.8976 4.16113 20.2809 5.86825 23.6597 8.70643C23.8143 8.82586 23.9618 8.95934 24.1093 9.08579C24.6993 9.61268 25.2613 10.1817 25.7741 10.7789C25.8303 10.8421 25.8865 10.8983 25.9286 10.9615Z" fill="white"/>
<path d="M25.9286 13.3213V18.3999C25.76 18.3016 25.5282 18.1821 25.2402 18.0557C25.0857 17.9784 24.9101 17.9012 24.7274 17.8309C24.4605 17.7115 24.1725 17.5991 23.8494 17.4867C23.7791 17.4586 23.7089 17.4376 23.6316 17.4165C23.5052 17.3673 23.3717 17.3252 23.2382 17.283C22.8238 17.1566 22.3672 17.0372 21.8895 16.9318C21.7069 16.8967 21.5172 16.8616 21.3276 16.8335C20.7164 16.7281 20.0632 16.6649 19.3818 16.6579C19.3256 16.6508 19.2624 16.6508 19.2062 16.6508L17.4009 16.6649L14.9423 16.6789H14.9353L9.67391 16.7211C8.00207 16.7211 6.97649 17.1215 6.35834 17.283C6.35834 17.283 6.35131 17.283 6.35131 17.2901C5.69803 17.4586 5.49432 17.3533 5.43812 16.2083C5.42408 15.8922 5.41705 15.4848 5.41705 14.9861L5.02368 14.684L4.33528 14.1642L3.9138 13.8411L3.82951 13.7779L2.66344 12.8928L2.48783 12.7594L2.12255 12.4784L1.4482 11.9726L0.640381 11.3545V8.96622C0.710626 8.91002 0.773847 8.86085 0.844092 8.81871C1.86265 8.11627 2.95145 7.51921 4.10347 7.03453C5.12905 6.59902 6.21082 6.25483 7.32069 6.00897C7.62275 5.94575 7.93183 5.88254 8.24793 5.84039C9.18219 5.67883 10.1445 5.60156 11.121 5.60156C15.3427 5.60156 19.2202 7.06965 22.297 9.50007C22.7606 9.86533 23.2101 10.2517 23.6316 10.6661C24.2076 11.214 24.7485 11.797 25.2473 12.4152C25.3456 12.5416 25.4439 12.668 25.5423 12.8015C25.6758 12.9701 25.8022 13.1457 25.9286 13.3213Z" fill="white"/>
<path d="M25.9286 16.1381V18.4423C25.9286 18.8989 25.8865 19.3485 25.8022 19.784C25.6758 20.4303 25.458 21.0485 25.163 21.6246C25.0084 21.6597 24.8328 21.6597 24.6361 21.6316C24.1936 21.5543 23.6738 21.3225 23.1118 21.0204C23.0837 21.0134 23.0556 20.9993 23.0345 20.9853C22.8589 20.894 22.6763 20.7956 22.4936 20.6832C22.1213 20.4795 21.728 20.2547 21.3346 20.044C21.2503 20.0018 21.166 19.9597 21.0887 19.9175C20.6392 19.6857 20.1756 19.4749 19.7119 19.3134C19.7119 19.3134 19.7119 19.3134 19.7049 19.3134C19.6066 19.2782 19.5012 19.2431 19.3958 19.215C18.9954 19.1026 18.588 19.0324 18.1946 19.0324L17.4219 18.8076L14.001 17.8171C14.001 17.8171 14.001 17.8171 13.994 17.8171L11.8937 17.2059H11.8866L10.9734 16.9389C8.33222 16.9389 6.70956 18.0629 5.92282 17.6344C5.61374 17.4728 5.4311 17.0654 5.36788 16.2645C5.34681 16.0397 5.33978 15.7869 5.33978 15.4918L4.51791 15.0914L4.48279 15.0773H4.47577L3.88571 14.7823L3.23945 14.4732L3.19028 14.4521L3.07086 14.3889L1.69406 13.7215L0.640381 13.2087V10.7992C0.759798 10.6938 0.886239 10.5954 1.01268 10.4971C1.14615 10.3917 1.27961 10.2934 1.41308 10.188C1.4201 10.188 1.4201 10.188 1.4201 10.188C2.24899 9.59087 3.12706 9.064 4.06132 8.62846C5.15012 8.10862 6.30916 7.70819 7.51036 7.44827C7.68597 7.40612 7.86861 7.36397 8.05124 7.33587C9.04872 7.1462 10.0743 7.04785 11.121 7.04785C14.8229 7.04785 18.2227 8.24911 20.9623 10.2723C21.7561 10.8624 22.4936 11.5157 23.168 12.2252C23.7229 12.8083 24.2357 13.4405 24.6993 14.1009C24.7345 14.15 24.7696 14.1992 24.8047 14.2414C25.0646 14.6207 25.3035 15.0071 25.5282 15.4075C25.6758 15.6464 25.8022 15.8922 25.9286 16.1381Z" fill="white"/>
<path d="M25.8022 19.7848C25.6757 20.4311 25.458 21.0493 25.163 21.6254C25.0295 21.8853 24.882 22.1312 24.7204 22.37C24.6221 22.5175 24.5167 22.658 24.4113 22.7915C24.1584 22.6932 23.7861 22.5527 23.3296 22.3981C23.3296 22.3981 23.3296 22.3981 23.3296 22.3911C22.9854 22.2717 22.592 22.1452 22.1705 22.0258C22.0511 21.9907 21.9317 21.9555 21.8052 21.9204C21.3065 21.7869 20.7867 21.6675 20.2809 21.5973C19.8594 21.527 19.445 21.4849 19.0587 21.4849L18.7355 21.3935H18.7285L17.0286 20.9018L15.9819 20.5997L14.8158 20.2625H14.8088L14.4295 20.1572L9.84249 18.8365L8.52188 18.4571L7.53845 18.2253L5.93686 17.846L5.74018 17.7968C5.74018 17.7968 5.74018 17.7968 5.73315 17.7968L4.12454 17.4245C4.12454 17.4174 4.12454 17.4174 4.12454 17.4174L3.83653 17.3542L3.68902 17.3191L2.51593 17.0451L2.38246 17.01L1.38498 16.1881L0.640381 15.5629V12.6967C0.900288 12.4438 1.16722 12.205 1.4482 11.9731C1.53249 11.8959 1.62381 11.8256 1.71513 11.7554C1.79943 11.6851 1.89074 11.6149 1.98206 11.5446C2.62129 11.0599 3.29565 10.6243 4.01215 10.252C4.92533 9.76028 5.89472 9.36688 6.91327 9.08589C7.10996 9.02266 7.30664 8.96646 7.51035 8.92432C8.66237 8.63629 9.87059 8.48877 11.121 8.48877C14.2609 8.48877 17.1831 9.43713 19.5995 11.0599C20.8007 11.8678 21.8825 12.8372 22.7957 13.9401C23.2593 14.4951 23.6808 15.0781 24.0531 15.6963C24.0882 15.7455 24.1163 15.7877 24.1444 15.8368C24.3692 16.2092 24.5799 16.5955 24.7696 16.9889C24.9452 17.3402 25.0997 17.6914 25.2402 18.0567C25.465 18.6187 25.6476 19.1947 25.8022 19.7848Z" fill="white"/>
<path d="M24.7204 22.369C24.6221 22.5165 24.5167 22.657 24.4113 22.7905C24.1022 23.1769 23.7651 23.5282 23.3857 23.8373C23.0556 24.1112 22.7044 24.3571 22.3321 24.5679C22.1916 24.5327 22.0511 24.4906 21.9036 24.4344C21.44 24.2728 20.9553 24.0059 20.5057 23.7249C19.8313 23.2963 19.2483 22.8327 18.9884 22.6219C18.8901 22.5376 18.8409 22.4955 18.8409 22.4955L17.6467 22.3901L17.4992 22.376L15.9538 22.2426L14.3522 22.1021L11.985 21.8913L8.23388 21.5611L8.21983 21.5541L6.89922 20.9148L5.56456 20.2685L4.48981 19.7486L4.258 19.6362L3.97 19.4957L2.97252 19.011L1.64489 18.3717L1.23044 18.168L0.640381 17.9853V14.8451C0.970533 14.4517 1.32176 14.0794 1.69406 13.7211C1.93289 13.4963 2.18577 13.2715 2.44568 13.0607C2.48783 13.0256 2.52997 12.9905 2.57212 12.9624C2.60022 12.9273 2.63534 12.9062 2.66344 12.8921C3.07789 12.5549 3.5134 12.2529 3.96297 11.9789C4.48279 11.6487 5.0307 11.3536 5.59968 11.1078C6.21082 10.8338 6.85005 10.602 7.51035 10.4263C8.65535 10.1032 9.87059 9.93457 11.1209 9.93457C13.9869 9.93457 16.6352 10.8057 18.8198 12.302C20.2177 13.2574 21.4259 14.4658 22.3812 15.8638C22.6973 16.3134 22.9783 16.7911 23.2382 17.2828C23.3295 17.4655 23.4209 17.6481 23.4981 17.8308C23.5824 18.0064 23.6597 18.182 23.737 18.3577C23.8845 18.723 24.0179 19.0883 24.1374 19.4676C24.3622 20.1702 24.5307 20.8867 24.6361 21.6314C24.6712 21.8773 24.6993 22.1231 24.7204 22.369Z" fill="white"/>
<path d="M23.3928 23.6547C23.3928 23.7109 23.3928 23.7741 23.3858 23.8374C23.0556 24.1114 22.7044 24.3572 22.3321 24.568C22.1775 24.6523 22.023 24.7366 21.8614 24.8068C21.6999 24.8841 21.5383 24.9544 21.3697 25.0176C21.1309 24.8911 20.8078 24.7366 20.4636 24.5891C19.9789 24.3713 19.452 24.1746 19.0446 24.1114C18.9463 24.0903 18.8549 24.0832 18.7706 24.0832L17.6186 23.9357H17.6046L16.1716 23.746L14.7245 23.5564L14.0502 23.4721L8.73964 22.7836C8.39544 22.7836 8.03017 22.7625 7.65084 22.7134C7.18723 22.6712 6.70253 22.601 6.21784 22.5026C5.74018 22.4183 5.25549 22.3059 4.79187 22.1865C4.30718 22.0741 3.82951 21.9406 3.38697 21.8142C2.87418 21.6596 2.39651 21.5121 1.99611 21.3786C1.66596 21.2732 1.38498 21.1749 1.16722 21.0976C1.04078 20.7955 0.93541 20.4794 0.858141 20.1563C0.710626 19.6083 0.640381 19.0323 0.640381 18.4422V17.269C0.865165 16.8967 1.11102 16.5314 1.38498 16.1871C1.88372 15.5268 2.45271 14.9226 3.07086 14.3887C3.09194 14.3606 3.12003 14.3396 3.14111 14.3255L3.14813 14.3185C3.36589 14.1218 3.59068 13.9462 3.82951 13.7776C3.85761 13.7495 3.88571 13.7284 3.9138 13.7073C4.0262 13.623 4.14561 13.5387 4.27205 13.4614C5.27656 12.78 6.38643 12.2461 7.57357 11.8878C8.6975 11.5506 9.88464 11.375 11.121 11.375C13.5725 11.375 15.8625 12.0986 17.7732 13.335C19.1851 14.2412 20.4003 15.4355 21.3276 16.8334C21.44 16.995 21.5453 17.1566 21.6507 17.3252C22.1354 18.1471 22.5358 19.0323 22.8308 19.9596C22.8659 20.0649 22.894 20.1703 22.9221 20.2827C22.9783 20.4724 23.0275 20.6691 23.0696 20.8658C23.0837 20.915 23.0977 20.9641 23.1118 21.0203C23.2101 21.4629 23.2804 21.9266 23.3296 22.3902C23.3296 22.3972 23.3296 22.3972 23.3296 22.3972C23.3717 22.8117 23.3928 23.2332 23.3928 23.6547Z" fill="white"/>
<path d="M21.9458 23.6542C21.9458 23.9 21.9317 24.167 21.9036 24.434C21.8896 24.5604 21.8755 24.6869 21.8615 24.8063C21.6999 24.8836 21.5383 24.9538 21.3697 25.017C21.0536 25.1365 20.7305 25.2348 20.4004 25.3051C20.1756 25.3543 19.9438 25.3964 19.712 25.4175H19.7049C19.4872 25.284 19.2343 25.1224 18.9744 24.9398C18.5037 24.6096 18.012 24.2372 17.6187 23.9352C17.6116 23.9281 17.6116 23.9281 17.6046 23.9211C17.1902 23.605 16.8951 23.3661 16.8951 23.3661L16.1505 23.3942L14.7175 23.4434L14.0502 23.4715L11.3668 23.5699L9.09791 23.6542C8.9504 23.6612 8.77479 23.6612 8.55702 23.6542H8.55C8.25497 23.6471 7.90374 23.6261 7.5174 23.5909C7.06783 23.5558 6.57611 23.5137 6.07737 23.4645C5.59268 23.4083 5.10096 23.3521 4.63032 23.2959C4.11051 23.2397 3.61879 23.1764 3.19732 23.1202C2.86717 23.0781 2.57916 23.043 2.34735 23.0149C2.15067 22.7901 1.97505 22.5582 1.80646 22.3053C1.55358 21.926 1.33582 21.5255 1.16723 21.097C1.04079 20.7949 0.935424 20.4788 0.858154 20.1556C1.06187 19.5304 1.3288 18.9402 1.6449 18.3712C1.89778 17.9075 2.19281 17.4649 2.51594 17.0434C2.83204 16.6289 3.17624 16.2426 3.54854 15.8913V15.8843C3.65391 15.7789 3.75928 15.6805 3.86465 15.5892C4.06133 15.4066 4.26504 15.238 4.47578 15.0764H4.48281C4.48983 15.0623 4.49685 15.0623 4.50388 15.0553C4.67247 14.9218 4.84808 14.8024 5.02369 14.683C6.06332 13.9734 7.23642 13.4465 8.50083 13.1374C9.33675 12.9337 10.2148 12.8213 11.121 12.8213C12.9052 12.8213 14.5911 13.2498 16.0733 14.0226H16.0803C17.3517 14.6759 18.4756 15.5752 19.3818 16.657C19.8805 17.2331 20.309 17.8654 20.6603 18.5328C20.9061 18.9824 21.1169 19.4531 21.2925 19.9308C21.3065 19.9729 21.3206 20.0081 21.3346 20.0432C21.454 20.3945 21.5594 20.7598 21.6507 21.1251C21.7139 21.385 21.7631 21.652 21.8053 21.9189C21.8193 22.0032 21.8334 22.0805 21.8404 22.1648C21.9106 22.6495 21.9458 23.1483 21.9458 23.6542Z" fill="white"/>
<path d="M20.5057 23.6516V23.7218C20.5057 23.9607 20.4847 24.2627 20.4636 24.5858C20.4425 24.8247 20.4214 25.0705 20.4004 25.3023C20.1756 25.3515 19.9438 25.3936 19.712 25.4147H19.7049C19.438 25.4498 19.1781 25.4639 18.9041 25.4639H17.6748L17.4079 25.3866L16.0241 24.9651L14.6192 24.5437L11.3668 23.5673L9.96192 23.1458C9.96192 23.1458 9.37889 23.3776 8.55702 23.6516H8.54999C8.23389 23.757 7.88969 23.8693 7.52442 23.9817C7.06782 24.1152 6.58313 24.2487 6.10546 24.354C5.61375 24.4664 5.12905 24.5507 4.69353 24.5858C4.56007 24.5999 4.4266 24.6069 4.30719 24.6069C3.91381 24.3891 3.53449 24.1292 3.19029 23.8412C2.88823 23.5884 2.60725 23.3144 2.34735 23.0124C2.15066 22.7876 1.97505 22.5558 1.80646 22.3029C1.85563 21.9868 1.91183 21.6778 1.99612 21.3757C2.20686 20.5398 2.53701 19.739 2.97253 19.0085C3.21136 18.5941 3.47829 18.1937 3.78737 17.8214C3.7944 17.8003 3.81547 17.7793 3.83654 17.7652C3.82952 17.7582 3.83654 17.7582 3.83654 17.7582C3.92786 17.6388 4.02621 17.5264 4.12455 17.421C4.12455 17.414 4.12455 17.414 4.12455 17.414C4.41255 17.1049 4.70758 16.8099 5.03071 16.5359C5.1431 16.4446 5.24847 16.3533 5.36789 16.262C5.38896 16.2409 5.41004 16.2269 5.43813 16.2058C7.01865 14.9976 8.99254 14.2671 11.121 14.2671C13.5374 14.2671 15.7361 15.1732 17.4009 16.6624C18.2017 17.3859 18.8831 18.2499 19.3959 19.2122C19.438 19.2825 19.4801 19.3597 19.5153 19.437C19.5785 19.5634 19.6417 19.6969 19.6979 19.8374C19.9297 20.3431 20.1124 20.877 20.2388 21.4249C20.2528 21.4811 20.2669 21.5373 20.2809 21.5935C20.3371 21.8534 20.3863 22.1203 20.4214 22.3872C20.4776 22.8016 20.5057 23.2231 20.5057 23.6516Z" fill="white"/>
<path d="M19.0587 23.6522C19.0587 23.7926 19.0516 23.9472 19.0446 24.1087C19.0306 24.3686 19.0095 24.6496 18.9744 24.9376C18.9603 25.1132 18.9322 25.2888 18.9041 25.4644H15.0547L14.3101 25.3449L11.4019 24.8814L10.9875 24.8181L10.0392 24.6636C9.62472 24.6636 8.72558 24.8462 7.77727 25.0218C7.27853 25.1132 6.77276 25.2115 6.31617 25.2747C6.25997 25.2817 6.20378 25.2888 6.15461 25.2958H6.14758C5.65587 25.1904 5.1782 25.0289 4.72863 24.8181C4.58814 24.7549 4.44765 24.6847 4.30716 24.6074C3.91378 24.3897 3.53446 24.1298 3.19026 23.8418C3.18323 23.7575 3.17621 23.6873 3.17621 23.6522C3.17621 23.4695 3.18323 23.2939 3.19728 23.1183C3.22538 22.6688 3.2886 22.2333 3.38694 21.8119C3.54148 21.1727 3.76627 20.5546 4.06832 19.9856C4.12452 19.8662 4.18774 19.7468 4.25798 19.6344C4.28608 19.5782 4.32121 19.5291 4.3493 19.4729C4.47575 19.2692 4.61624 19.0725 4.75673 18.8758C5.05176 18.4895 5.38191 18.1243 5.73313 17.7941C5.74016 17.7941 5.74016 17.7941 5.74016 17.7941C5.76826 17.766 5.79636 17.7379 5.82445 17.7169C5.85958 17.6888 5.88767 17.6537 5.9228 17.6326C6.06329 17.5062 6.20378 17.3938 6.35129 17.2884C6.35129 17.2814 6.35832 17.2814 6.35832 17.2814C7.68595 16.291 9.32969 15.708 11.1209 15.708C12.5118 15.708 13.8043 16.0592 14.9353 16.6773H14.9423C15.9117 17.2111 16.7546 17.9346 17.4219 18.8056C17.6818 19.1427 17.9137 19.501 18.1103 19.8803H18.1174C18.1525 19.9505 18.1876 20.0207 18.2227 20.091C18.4335 20.5054 18.6021 20.9409 18.7285 21.3904H18.7355C18.7426 21.4256 18.7566 21.4607 18.7636 21.4958C18.8479 21.7978 18.9182 22.1069 18.9673 22.423C18.9744 22.4862 18.9814 22.5564 18.9884 22.6196C19.0376 22.9568 19.0587 23.301 19.0587 23.6522Z" fill="white"/>
<path d="M17.6186 23.5764C17.6186 23.6888 17.6186 23.8082 17.6046 23.9206V23.9276C17.6046 23.9346 17.6046 23.9346 17.6046 23.9346C17.5905 24.4404 17.5203 24.939 17.4079 25.3886C17.4079 25.4167 17.4009 25.4377 17.3868 25.4658H14.1064L11.4019 24.8828L11.0437 24.8056L10.9875 24.8196L7.98803 25.4377L7.85456 25.4658H7.6649C7.21533 25.4658 6.77279 25.4237 6.34429 25.3394C6.28107 25.3253 6.21785 25.3113 6.15463 25.2972H6.14761C5.65589 25.1919 5.17823 25.0303 4.72866 24.8196C4.71461 24.7424 4.70056 24.6651 4.69354 24.5879C4.64436 24.2858 4.62329 23.9698 4.62329 23.6537C4.62329 23.5343 4.62329 23.4149 4.63032 23.2955C4.65139 22.9162 4.70758 22.5439 4.79188 22.1857C4.84807 21.9188 4.92534 21.659 5.01666 21.4131C5.09393 21.1954 5.18525 20.9847 5.28359 20.781C5.36789 20.6054 5.46623 20.4368 5.56457 20.2683C5.66292 20.1067 5.76829 19.9522 5.88068 19.7977C6.16166 19.4114 6.49181 19.0531 6.85708 18.7371C7.06782 18.5545 7.29963 18.3789 7.53846 18.2243C8.56404 17.5501 9.79333 17.1567 11.121 17.1567C11.3809 17.1567 11.6337 17.1708 11.8796 17.2059H11.8937C12.6453 17.2902 13.3477 17.5009 13.994 17.817C14.001 17.817 14.001 17.817 14.001 17.817C15.0196 18.3157 15.8836 19.0672 16.5158 19.9943C16.6211 20.1488 16.7265 20.3174 16.8178 20.486C16.8951 20.6194 16.9653 20.7599 17.0286 20.9004C17.1269 21.1181 17.2182 21.3499 17.2955 21.5817H17.3025C17.3798 21.8416 17.45 22.1014 17.4992 22.3754V22.3824C17.5765 22.7687 17.6186 23.1691 17.6186 23.5764Z" fill="white"/>
<path d="M16.1716 23.7247V23.7458C16.1716 24.1602 16.1224 24.5676 16.0241 24.9681C15.9889 25.1366 15.9398 25.3052 15.8765 25.4668H12.7296L11.1209 25.0242L9.51233 25.4668H7.66488C7.21531 25.4668 6.77277 25.4246 6.34427 25.3404C6.33022 25.3193 6.3232 25.2982 6.31618 25.2771C6.21783 24.9751 6.14056 24.673 6.10544 24.3569C6.07734 24.1532 6.06329 23.9425 6.06329 23.7247C6.06329 23.6404 6.06329 23.5491 6.07734 23.4648C6.08437 23.1346 6.13354 22.8115 6.21783 22.5024C6.25998 22.2917 6.3232 22.088 6.40749 21.8913C6.43559 21.7929 6.47774 21.7016 6.52691 21.6103C6.63228 21.3715 6.75872 21.1396 6.89921 20.9149C7.05375 20.6901 7.22234 20.4793 7.412 20.2826C7.63678 20.0298 7.88967 19.798 8.17767 19.6083C8.66939 19.25 9.23135 18.9831 9.84248 18.8356C10.2499 18.7232 10.6784 18.667 11.1209 18.667C12.5258 18.667 13.7832 19.229 14.6964 20.1351C14.7315 20.1703 14.7737 20.2124 14.8088 20.2616H14.8158C14.9142 20.3669 15.0055 20.4723 15.0968 20.5917C15.3567 20.9219 15.5745 21.2801 15.7431 21.6735C15.8274 21.8562 15.8976 22.0458 15.9538 22.2425C15.9608 22.2706 15.9679 22.2917 15.9749 22.3198C16.0732 22.664 16.1364 23.0222 16.1505 23.3945C16.1645 23.4999 16.1716 23.6123 16.1716 23.7247Z" fill="white"/>
<path d="M14.7316 23.7244C14.7316 24.0125 14.6964 24.2865 14.6192 24.5464C14.5489 24.8275 14.4436 25.0944 14.3101 25.3474C14.289 25.3895 14.2399 25.4668 14.2399 25.4668H8.00209C7.99507 25.4598 7.98804 25.4457 7.98804 25.4387C7.90375 25.3052 7.8335 25.1717 7.77731 25.0242C7.63682 24.701 7.55252 24.3497 7.52443 23.9844C7.51038 23.9001 7.51038 23.8088 7.51038 23.7244C7.51038 23.6823 7.51038 23.6331 7.5174 23.591C7.52443 23.2818 7.56657 22.9868 7.65087 22.7128C7.72111 22.4598 7.81243 22.228 7.93185 22.0032C7.93185 22.0032 7.93887 21.9961 7.93887 21.9891C8.02316 21.8416 8.11448 21.694 8.21985 21.5535C8.56405 21.0898 9.02065 20.7105 9.54748 20.4646C9.55451 20.4646 9.55451 20.4646 9.55451 20.4646C9.7231 20.3803 9.89871 20.31 10.0813 20.2608C10.0813 20.2608 10.0813 20.2608 10.0884 20.2608C10.4115 20.1625 10.7627 20.1133 11.121 20.1133C11.5354 20.1133 11.9358 20.1765 12.3011 20.31C12.4346 20.3451 12.561 20.4013 12.6874 20.4646C12.6874 20.4646 12.6874 20.4646 12.6945 20.4646C13.2986 20.7526 13.8114 21.2023 14.1626 21.7643C14.2328 21.8697 14.296 21.9821 14.3522 22.1015C14.3803 22.1507 14.4084 22.2069 14.4295 22.2561C14.5911 22.6214 14.6894 23.0219 14.7175 23.4434C14.7245 23.4785 14.7245 23.5137 14.7245 23.5558C14.7316 23.612 14.7316 23.6682 14.7316 23.7244Z" fill="white"/>
<path d="M17.4992 3.69189H9.06975C6.33019 3.69189 4.15259 5.86949 4.15259 8.60904V17.0384C4.15259 19.778 6.33019 21.9556 9.06975 21.9556H17.4992C20.2387 21.9556 22.4163 19.778 22.4163 17.0384V8.60904C22.4163 5.86949 20.2387 3.69189 17.4992 3.69189Z" stroke="#157DA1" stroke-width="2" stroke-miterlimit="10" stroke-linecap="round" stroke-linejoin="round"/>
<path d="M18.2016 7.90625C18.5896 7.90625 18.9041 7.59156 18.9041 7.20337C18.9041 6.81518 18.5896 6.50049 18.2016 6.50049C17.8136 6.50049 17.4991 6.81518 17.4991 7.20337C17.4991 7.59156 17.8136 7.90625 18.2016 7.90625Z" fill="#157DA1"/>
<path d="M13.2845 17.0347C15.6122 17.0347 17.4992 15.1479 17.4992 12.8206C17.4992 10.4932 15.6122 8.60645 13.2845 8.60645C10.9568 8.60645 9.06982 10.4932 9.06982 12.8206C9.06982 15.1479 10.9568 17.0347 13.2845 17.0347Z" stroke="#157DA1" stroke-width="2" stroke-miterlimit="10" stroke-linecap="round" stroke-linejoin="round"/>
</svg>