<svg width="40" height="34" viewBox="0 0 40 34" fill="none" xmlns="http://www.w3.org/2000/svg">
<path d="M20.031 0.310105L20.0311 0.310108C20.165 0.314047 20.2999 0.345345 20.4241 0.405036L27.262 3.545L27.2626 3.54527C27.6285 3.71448 27.8617 4.08507 27.8499 4.49197L27.8499 4.49204C27.8381 4.89398 27.5896 5.25309 27.2111 5.40292L27.2107 5.40306L21.01 7.84629V13.8218L27.6 20.4118L30.6859 17.3259C30.8709 17.1408 31.1199 17.034 31.3844 17.03L31.3845 17.03C31.6566 17.0261 31.9207 17.1324 32.1141 17.3259L38.9522 24.164C39.2148 24.4164 39.3212 24.7936 39.227 25.1454M20.031 0.310105L38.9852 25.0819M20.031 0.310105C19.7586 0.302209 19.4948 0.404858 19.2984 0.593403C19.1 0.783874 18.99 1.04829 18.99 1.32V7.0236C18.9781 7.11545 18.9781 7.20955 18.99 7.3014V13.8218L12.4 20.4118M20.031 0.310105L12.4 20.4118M39.227 25.1454C39.2268 25.1459 39.2267 25.1464 39.2265 25.147L38.9852 25.0819M39.227 25.1454C39.2271 25.1448 39.2272 25.1443 39.2274 25.1438L38.9852 25.0819M39.227 25.1454C39.1358 25.4999 38.8597 25.7759 38.5052 25.867M38.9852 25.0819C38.9169 25.3491 38.7091 25.5569 38.4419 25.6252M38.5052 25.867C38.5058 25.8668 38.5064 25.8667 38.507 25.8665L38.4419 25.6252M38.5052 25.867C38.1535 25.9612 37.7763 25.8548 37.524 25.5922M38.5052 25.867C38.5047 25.8671 38.5043 25.8673 38.5038 25.8674L38.4419 25.6252M38.4419 25.6252L37.524 25.5922M37.524 25.5922L37.5259 25.5941L37.7027 25.4173L37.5219 25.59C37.5226 25.5908 37.5233 25.5915 37.524 25.5922ZM12.4 20.4118L9.31412 17.3259C9.12067 17.1324 8.8566 17.0261 8.58451 17.03L8.5844 17.03C8.31987 17.034 8.07095 17.1408 7.88588 17.3259L1.04778 24.164C0.785165 24.4164 0.678817 24.7936 0.773039 25.1454C0.864229 25.4998 1.1402 25.7758 1.49463 25.867C1.84638 25.9612 2.22363 25.8548 2.47602 25.5922L8.6 19.4682L10.9718 21.84L1.04778 31.764C0.785177 32.0164 0.678826 32.3936 0.773026 32.7453C0.864204 33.0998 1.14018 33.3758 1.49463 33.467C1.49516 33.4671 1.4957 33.4672 1.49623 33.4674L1.55813 33.2252M12.4 20.4118L10.5721 25.0961L10.4268 25.0234L10.3364 24.9783L2.29735 33.0173M1.55813 33.2252C1.82235 33.2964 2.10735 33.2162 2.29735 33.0173M1.55813 33.2252C1.29094 33.1569 1.08313 32.9491 1.01485 32.6819L1.55813 33.2252ZM2.29735 33.0173L2.47412 33.1941L2.47602 33.1922C2.47672 33.1915 2.47742 33.1908 2.47812 33.19L2.29735 33.0173ZM31.5768 19.2915L31.4 19.1147L31.2232 19.2915L31.4 19.4682L31.5768 19.2915ZM29.0282 21.84L28.8515 21.6632L28.6747 21.84L28.8515 22.0168L29.0282 21.84ZM27.6 20.7653L27.7768 20.5885H27.4232L27.6 20.7653ZM23.19 22.21L23.04 22.0975L22.89 22.21L20 24.3775L17.11 22.21L16.96 22.0975L16.81 22.21L13.8135 24.4567L12.0769 23.5884L12.9861 22.6791C13.088 22.6102 13.1731 22.5246 13.242 22.4292L20.0001 15.6682L26.7609 22.4262C26.8299 22.5281 26.9156 22.6133 27.0111 22.6822L27.9223 23.5888L26.1865 24.4567L23.19 22.21ZM21.01 2.89713L24.267 4.39031L21.01 5.67584V2.89713Z" fill="#027E45" stroke="#027E45" stroke-width="0.5"/>
</svg>