<svg width="41" height="42" viewBox="0 0 41 42" fill="none" xmlns="http://www.w3.org/2000/svg">
<path d="M6.82514 41V41.25H7.07514H8.8109H9.0609V41V37.0054C9.0609 33.6143 7.60544 30.7809 6.18841 28.0223C6.08774 27.8263 5.98726 27.6307 5.88751 27.4352C4.37581 24.4739 2.98575 21.5391 2.98575 17.875C2.98575 10.1032 9.1749 2.98913 19.2254 2.98913C24.5512 2.98913 27.985 4.72194 30.267 7.28054C32.5563 9.84725 33.7107 13.3542 34.1379 16.9534L34.1376 16.9534L34.1395 16.9649L34.1667 17.128L34.1728 17.165L34.1896 17.1986L34.271 17.3616L34.2707 17.3617L34.276 17.3713L37.9099 23.9195C37.9099 23.9196 37.91 23.9197 37.91 23.9198C38.1627 24.379 37.9748 24.9128 37.4893 25.1175L35.2927 26.0413L35.2927 26.0412L35.2869 26.0438L34.7445 26.2884L34.5972 26.3548V26.5163V31.3261C34.5972 34.1334 32.3322 36.4022 29.5315 36.4022H26.1684H25.9184V36.6522V41V41.25H26.1684H27.9042H28.1542V41V38.6413H29.5315C33.5483 38.6413 36.833 35.3496 36.833 31.3261V27.8237L38.3613 27.1816L38.3617 27.1814C40.0441 26.4716 40.7521 24.4366 39.8664 22.8355L39.8662 22.8351L36.3096 16.437C35.8236 12.623 34.5667 8.74945 31.9148 5.7792C29.2 2.73681 25.0603 0.75 19.2254 0.75C8.08126 0.75 0.75 8.87998 0.75 17.875C0.75 22.1191 2.39809 25.4654 3.92343 28.4507C3.96089 28.524 3.99824 28.5971 4.03548 28.6699C5.52254 31.5785 6.82514 34.1263 6.82514 37.0054V41ZM21.8867 25.6255L21.8866 25.6254L21.8825 25.6327C21.4374 26.4221 21.0592 27.4168 20.8799 28.5761H17.5713C17.3967 27.4324 17.0349 26.4513 16.5967 25.6621C16.4925 25.471 16.336 25.3144 16.145 25.21L16.145 25.2099L16.1409 25.2078C13.9959 24.0873 12.5324 21.854 12.5324 19.2609C12.5324 15.5466 15.5195 12.5543 19.2254 12.5543C22.9313 12.5543 25.9184 15.5466 25.9184 19.2609C25.9184 21.8515 24.4711 24.0875 22.3376 25.2075C22.1523 25.3027 21.9958 25.4461 21.8867 25.6255ZM17.0557 21.25C17.4515 21.25 17.8156 21.1043 18.0915 20.8608C18.102 20.9052 18.1075 20.9516 18.1075 21V27.087V27.337H18.3575H20.0933H20.3433V27.087V21C20.3433 20.9516 20.3488 20.9052 20.3593 20.8607C20.6353 21.1043 20.9994 21.25 21.3951 21.25C22.2524 21.25 22.9469 20.5534 22.9469 19.6957C22.9469 18.8379 22.2524 18.1413 21.3951 18.1413H20.9612C20.3085 18.1413 19.7055 18.3706 19.2254 18.7443C18.7454 18.3706 18.1423 18.1413 17.4897 18.1413H17.0557C16.1985 18.1413 15.5039 18.8379 15.5039 19.6957C15.5039 20.5534 16.1985 21.25 17.0557 21.25ZM19.2254 10.3152C14.3034 10.3152 10.2967 14.3305 10.2967 19.2609C10.2967 22.5601 12.0974 25.4206 14.7539 26.9691C15.1663 27.7378 15.4724 28.4866 15.5035 29.5222C15.4971 29.5847 15.4973 29.6474 15.5039 29.7099V29.71V29.7101V29.7103V29.7105V29.7106V29.7108V29.7109V29.7111V29.7113V29.7114V29.7116V29.7117V29.7119V29.7121V29.7122V29.7124V29.7125V29.7127V29.7128V29.713V29.7132V29.7133V29.7135V29.7136V29.7138V29.714V29.7141V29.7143V29.7144V29.7146V29.7148V29.7149V29.7151V29.7152V29.7154V29.7156V29.7157V29.7159V29.716V29.7162V29.7164V29.7165V29.7167V29.7168V29.717V29.7171V29.7173V29.7175V29.7176V29.7178V29.7179V29.7181V29.7183V29.7184V29.7186V29.7187V29.7189V29.7191V29.7192V29.7194V29.7195V29.7197V29.7199V29.72V29.7202V29.7203V29.7205V29.7206V29.7208V29.721V29.7211V29.7213V29.7214V29.7216V29.7218V29.7219V29.7221V29.7222V29.7224V29.7226V29.7227V29.7229V29.723V29.7232V29.7234V29.7235V29.7237V29.7238V29.724V29.7242V29.7243V29.7245V29.7246V29.7248V29.7249V29.7251V29.7253V29.7254V29.7256V29.7257V29.7259V29.7261V29.7262V29.7264V29.7265V29.7267V29.7269V29.727V29.7272V29.7273V29.7275V29.7277V29.7278V29.728V29.7281V29.7283V29.7285V29.7286V29.7288V29.7289V29.7291V29.7292V29.7294V29.7296V29.7297V29.7299V29.73V29.7302V29.7304V29.7305V29.7307V29.7308V29.731V29.7312V29.7313V29.7315V29.7316V29.7318V29.732V29.7321V29.7323V29.7324V29.7326V29.7327V29.7329V29.7331V29.7332V29.7334V29.7335V29.7337V29.7339V29.734V29.7342V29.7343V29.7345V29.7347V29.7348V29.735V29.7351V29.7353V29.7355V29.7356V29.7358V29.7359V29.7361V29.7363V29.7364V29.7366V29.7367V29.7369V29.737V29.7372V29.7374V29.7375V29.7377V29.7378V29.738V29.7382V29.7383V29.7385V29.7386V29.7388V29.739V29.7391V29.7393V29.7394V29.7396V29.7398V29.7399V29.7401V29.7402V29.7404V29.7406V29.7407V29.7409V29.741V29.7412V29.7413V29.7415V29.7417V29.7418V29.742V29.7421V29.7423V29.7425V29.7426V29.7428V29.7429V29.7431V29.7433V29.7434V29.7436V29.7437V29.7439V29.7441V29.7442V29.7444V29.7445V29.7447V29.7449V29.745V29.7452V29.7453V29.7455V29.7456V29.7458V29.746V29.7461V29.7463V29.7464V29.7466V29.7468V29.7469V29.7471V29.7472V29.7474V29.7476V29.7477V29.7479V29.748V29.7482V29.7484V29.7485V29.7487V29.7488V29.749V29.7491V29.7493V29.7495V29.7496V29.7498V29.7499V29.7501V29.7503V29.7504V29.7506V29.7507V29.7509V29.7511V29.7512V29.7514V29.7515V29.7517V29.7519V29.752V29.7522V29.7523V29.7525V29.7527V29.7528V29.753V29.7531V29.7533V29.7534V29.7536V29.7538V29.7539V29.7541V29.7542V29.7544V29.7546V29.7547V29.7549V29.755V29.7552V29.7554V29.7555V29.7557V29.7558V29.756V29.7562V29.7563V29.7565V29.7566V29.7568V29.757V29.7571V29.7573V29.7574V29.7576V29.7577V29.7579V29.7581V29.7582V29.7584V29.7585V29.7587V29.7589V29.759V29.7592V29.7593V29.7595V29.7597V29.7598V29.76V29.7601V29.7603V29.7605V29.7606V29.7608V29.7609V29.7611V29.7613V29.7614V29.7616V29.7617V29.7619V29.762V29.7622V29.7624V29.7625V29.7627V29.7628V29.763V29.7632V29.7633V29.7635V29.7636V29.7638V29.764V29.7641V29.7643V29.7644V29.7646V29.7648V29.7649V29.7651V29.7652V29.7654V29.7655V29.7657V29.7659V29.766V29.7662V29.7663V29.7665V29.7667V29.7668V29.767V29.7671V29.7673V29.7675V29.7676V29.7678V29.7679V29.7681V29.7683V29.7684V29.7686V29.7687V29.7689V29.7691V29.7692V29.7694V29.7695V29.7697V29.7698V29.77V29.7702V29.7703V29.7705V29.7706V29.7708V29.771V29.7711V29.7713V29.7714V29.7716V29.7718V29.7719V29.7721V29.7722V29.7724V29.7726V29.7727V29.7729V29.773V29.7732V29.7734V29.7735V29.7737V29.7738V29.774V29.7741V29.7743V29.7745V29.7746V29.7748V29.7749V29.7751V29.7753V29.7754V29.7756V29.7757V29.7759V29.7761V29.7762V29.7764V29.7765V29.7767V29.7769V29.777V29.7772V31.4348C15.5039 32.7074 16.3597 33.7767 17.5068 34.144C17.8436 34.7478 18.4789 35.163 19.2254 35.163C19.972 35.163 20.6073 34.7478 20.944 34.144C22.0911 33.7767 22.9469 32.7074 22.9469 31.4348V29.8405C22.9503 29.79 22.9503 29.7372 22.9469 29.6867V29.6866V29.6864V29.6863V29.6861V29.6859V29.6858V29.6856V29.6855V29.6853V29.6851V29.685V29.6848V29.6847V29.6845V29.6843V29.6842V29.684V29.6839V29.6837V29.6836V29.6834V29.6832V29.6831V29.6829V29.6828V29.6826V29.6824V29.6823V29.6821V29.682V29.6818V29.6816V29.6815V29.6813V29.6812V29.681V29.6808V29.6807V29.6805V29.6804V29.6802V29.68V29.6799V29.6797V29.6796V29.6794V29.6793V29.6791V29.6789V29.6788V29.6786V29.6785V29.6783V29.6781V29.678V29.6778V29.6777V29.6775V29.6773V29.6772V29.677V29.6769V29.6767V29.6765V29.6764V29.6762V29.6761V29.6759V29.6757V29.6756V29.6754V29.6753V29.6751V29.675V29.6748V29.6746V29.6745V29.6743V29.6742V29.674V29.6738V29.6737V29.6735V29.6734V29.6732V29.673V29.6729V29.6727V29.6726V29.6724V29.6722V29.6721V29.6719V29.6718V29.6716V29.6714V29.6713V29.6711V29.671V29.6708V29.6707V29.6705V29.6703V29.6702V29.67V29.6699V29.6697V29.6695V29.6694V29.6692V29.6691V29.6689V29.6687V29.6686V29.6684V29.6683V29.6681V29.6679V29.6678V29.6676V29.6675V29.6673V29.6672V29.667V29.6668V29.6667V29.6665V29.6664V29.6662V29.666V29.6659V29.6657V29.6656V29.6654V29.6652V29.6651V29.6649V29.6648V29.6646V29.6644V29.6643V29.6641V29.664V29.6638V29.6636V29.6635V29.6633V29.6632V29.663V29.6629V29.6627V29.6625V29.6624V29.6622V29.6621V29.6619V29.6617V29.6616V29.6614V29.6613V29.6611V29.6609V29.6608V29.6606V29.6605V29.6603V29.6601V29.66V29.6598V29.6597V29.6595V29.6593V29.6592V29.659V29.6589V29.6587V29.6586V29.6584V29.6582V29.6581V29.6579V29.6578V29.6576V29.6574V29.6573V29.6571V29.657V29.6568V29.6566V29.6565V29.6563V29.6562V29.656V29.6558V29.6557V29.6555V29.6554V29.6552V29.6551V29.6549V29.6547V29.6546V29.6544V29.6543V29.6541V29.6539V29.6538V29.6536V29.6535V29.6533V29.6531V29.653V29.6528V29.6527V29.6525V29.6523V29.6522V29.652V29.6519V29.6517V29.6515V29.6514V29.6512V29.6511V29.6509V29.6508V29.6506V29.6504V29.6503V29.6501V29.65V29.6498V29.6496V29.6495V29.6493V29.6492V29.649V29.6488V29.6487V29.6485V29.6484V29.6482V29.648V29.6479V29.6477V29.6476V29.6474V29.6472V29.6471V29.6469V29.6468V29.6466V29.6465V29.6463V29.6461V29.646V29.6458V29.6457V29.6455V29.6453V29.6452V29.645V29.6449V29.6447V29.6445V29.6444V29.6442V29.6441V29.6439V29.6437V29.6436V29.6434V29.6433V29.6431V29.643V29.6428V29.6426V29.6425V29.6423V29.6422V29.642V29.6418V29.6417V29.6415V29.6414V29.6412V29.641V29.6409V29.6407V29.6406V29.6404V29.6402V29.6401V29.6399V29.6398V29.6396V29.6394V29.6393V29.6391V29.639V29.6388V29.6387V29.6385V29.6383V29.6382V29.638V29.6379V29.6377V29.6375V29.6374V29.6372V29.6371V29.6369V29.6367V29.6366V29.6364V29.6363V29.6361V29.6359V29.6358V29.6356V29.6355V29.6353V29.6351V29.635V29.6348V29.6347V29.6345V29.6344V29.6342V29.634V29.6339V29.6337V29.6336V29.6334V29.6332V29.6331V29.6329V29.6328V29.6326V29.6324V29.6323V29.6321V29.632V29.6318V29.6316V29.6315V29.6313V29.6312V29.631V29.6308V29.6307V29.6305V29.6304V29.6302V29.6301V29.6299V29.6297V29.6296V29.6294V29.6293V29.6291V29.6289V29.6288V29.6286V29.6285V29.6283V29.6281V29.628V29.6278V29.6277V29.6275V29.6273V29.6272V29.627V29.6269V29.6267V29.6265V29.6264V29.6262V29.6261V29.6259V29.6258V29.6256V29.6254V29.6253V29.6251V29.625V29.6248V29.6246V29.6245V29.6243V29.6242V29.624V29.6238V29.6237V29.6235V29.6234V29.6232V29.623V29.6229V29.6227V29.6226V29.6224V29.6222V29.6221V29.6219V29.6218V29.6216V29.6215V29.6213V29.6211V29.621V29.6208V29.6207V29.6205V29.6203V29.6202V29.62V29.6199V29.6197V29.6195V29.6194V29.6192V29.6191V29.6189V29.6187V29.6186V29.6184V29.6183V29.6181V29.618V29.6178V29.6176V29.6175V29.6173V29.6172V29.617V29.6168V29.6167V29.6165V29.6164V29.6162V29.616V29.6159C22.963 28.4887 23.2771 27.7251 23.7232 26.9147C26.3516 25.3613 28.1542 22.542 28.1542 19.2609C28.1542 14.3305 24.1475 10.3152 19.2254 10.3152ZM20.7112 30.8152V31.4348C20.7112 31.7897 20.4463 32.0543 20.0933 32.0543H18.3575C18.0045 32.0543 17.7397 31.7897 17.7397 31.4348V30.8152H20.7112Z" fill="#027E45" stroke="#027E45" stroke-width="0.5"/>
</svg>