<svg width="30" height="22" viewBox="0 0 45 22" fill="none" xmlns="http://www.w3.org/2000/svg">
<path d="M10.8396 2.82484L10.8516 2.81087L10.8626 2.79604C11.281 2.23222 11.235 1.43285 10.7237 0.921556C10.1616 0.359481 9.25033 0.359481 8.68825 0.921556L-0.0783882 9.6882L-0.091342 9.70115L-0.103312 9.71502L-0.194258 9.82037L-0.206321 9.83434L-0.217319 9.84916C-0.635665 10.413 -0.589678 11.2124 -0.0783882 11.7237L8.68825 20.4903L8.70121 20.5032L8.71507 20.5152L8.82042 20.6062L8.83439 20.6182L8.84922 20.6292C9.41304 21.0476 10.2124 21.0016 10.7237 20.4903L10.7367 20.4773L10.7486 20.4635L10.8396 20.3581L10.8516 20.3442L10.8626 20.3293C11.281 19.7655 11.235 18.9661 10.7237 18.4548C10.7237 18.4548 10.7237 18.4548 10.7237 18.4548L2.9752 10.7059L10.7237 2.957L10.7367 2.94405L10.7486 2.93019L10.8396 2.82484Z" fill="#027E45" stroke="#027E45"/>
<path d="M21.3702 1.27511C21.7036 1.60858 21.7339 2.1304 21.4611 2.49811L21.3702 2.60346L13.2681 10.7059L21.3702 18.8084C21.7036 19.1419 21.7339 19.6637 21.4611 20.0314L21.3702 20.1367C21.0367 20.4702 20.5149 20.5005 20.1472 20.2277L20.0418 20.1367L11.2752 11.3701C10.9417 11.0366 10.9114 10.5148 11.1842 10.1471L11.2752 10.0418L20.0418 1.27511C20.4086 0.908297 21.0033 0.908297 21.3702 1.27511Z" fill="#027E45" fill-opacity="0.4"/>
<path d="M21.8396 2.82484L21.8516 2.81087L21.8626 2.79604C22.281 2.23222 22.235 1.43285 21.7237 0.921556C21.1616 0.359481 20.2503 0.359481 19.6883 0.921556L10.9216 9.6882L10.9087 9.70115L10.8967 9.71502L10.8057 9.82037L10.7937 9.83434L10.7827 9.84916C10.3643 10.413 10.4103 11.2124 10.9216 11.7237L19.6883 20.4903L19.7012 20.5032L19.7151 20.5152L19.8204 20.6062L19.8344 20.6182L19.8492 20.6292C20.413 21.0476 21.2124 21.0016 21.7237 20.4903L21.7367 20.4773L21.7486 20.4635L21.8396 20.3581L21.8516 20.3442L21.8626 20.3293C22.281 19.7655 22.235 18.9661 21.7237 18.4548C21.7237 18.4548 21.7237 18.4548 21.7237 18.4548L13.9752 10.7059L21.7237 2.957L21.7367 2.94405L21.7486 2.93019L21.8396 2.82484Z" stroke="#027E45" stroke-opacity="0.4"/>
<path d="M32.3702 1.27511C32.7036 1.60858 32.7339 2.1304 32.4611 2.49811L32.3702 2.60346L24.2681 10.7059L32.3702 18.8084C32.7036 19.1419 32.7339 19.6637 32.4611 20.0314L32.3702 20.1367C32.0367 20.4702 31.5149 20.5005 31.1472 20.2277L31.0418 20.1367L22.2752 11.3701C21.9417 11.0366 21.9114 10.5148 22.1842 10.1471L22.2752 10.0418L31.0418 1.27511C31.4086 0.908297 32.0033 0.908297 32.3702 1.27511Z" fill="#027E45" fill-opacity="0.2"/>
<path d="M32.8396 2.82484L32.8516 2.81087L32.8626 2.79604C33.281 2.23222 33.235 1.43285 32.7237 0.921556C32.1616 0.359481 31.2503 0.359481 30.6883 0.921556L21.9216 9.6882L21.9087 9.70115L21.8967 9.71502L21.8057 9.82037L21.7937 9.83434L21.7827 9.84916C21.3643 10.413 21.4103 11.2124 21.9216 11.7237L30.6883 20.4903L30.7012 20.5032L30.7151 20.5152L30.8204 20.6062L30.8344 20.6182L30.8492 20.6292C31.413 21.0476 32.2124 21.0016 32.7237 20.4903L32.7367 20.4773L32.7486 20.4635L32.8396 20.3581L32.8516 20.3442L32.8626 20.3293C33.281 19.7655 33.235 18.9661 32.7237 18.4548C32.7237 18.4548 32.7237 18.4548 32.7237 18.4548L24.9752 10.7059L32.7237 2.957L32.7367 2.94405L32.7486 2.93019L32.8396 2.82484Z" stroke="#027E45" stroke-opacity="0.2"/>
<path d="M43.3702 1.27511C43.7036 1.60858 43.7339 2.1304 43.4611 2.49811L43.3702 2.60346L35.2681 10.7059L43.3702 18.8084C43.7036 19.1419 43.7339 19.6637 43.4611 20.0314L43.3702 20.1367C43.0367 20.4702 42.5149 20.5005 42.1472 20.2277L42.0418 20.1367L33.2752 11.3701C32.9417 11.0366 32.9114 10.5148 33.1842 10.1471L33.2752 10.0418L42.0418 1.27511C42.4086 0.908297 43.0033 0.908297 43.3702 1.27511Z" fill="#027E45" fill-opacity="0.1"/>
<path d="M43.8396 2.82484L43.8516 2.81087L43.8626 2.79604C44.281 2.23222 44.235 1.43285 43.7237 0.921556C43.1616 0.359481 42.2503 0.359481 41.6883 0.921556L32.9216 9.6882L32.9087 9.70115L32.8967 9.71502L32.8057 9.82037L32.7937 9.83434L32.7827 9.84916C32.3643 10.413 32.4103 11.2124 32.9216 11.7237L41.6883 20.4903L41.7012 20.5032L41.7151 20.5152L41.8204 20.6062L41.8344 20.6182L41.8492 20.6292C42.413 21.0476 43.2124 21.0016 43.7237 20.4903L43.7367 20.4773L43.7486 20.4635L43.8396 20.3581L43.8516 20.3442L43.8626 20.3293C44.281 19.7655 44.235 18.9661 43.7237 18.4548C43.7237 18.4548 43.7237 18.4548 43.7237 18.4548L35.9752 10.7059L43.7237 2.957L43.7367 2.94405L43.7486 2.93019L43.8396 2.82484Z" stroke="#027E45" stroke-opacity="0.1"/>
</svg>
